<?xml version="1.0" encoding="UTF-8"?>
<svg version="1.1" xmlns="http://www.w3.org/2000/svg" width="851" height="221">
<path d="M0 0 C9.59655304 -0.06945844 19.19301977 -0.12279 28.78976917 -0.15543652 C33.24575989 -0.17110387 37.70157885 -0.19236152 42.1574707 -0.22631836 C46.4562976 -0.25887388 50.75495912 -0.27684495 55.05389977 -0.28463173 C56.69539685 -0.29018211 58.33688471 -0.30102049 59.97831154 -0.31719017 C62.2745596 -0.33891431 64.57012108 -0.3419691 66.86645508 -0.34057617 C68.17439529 -0.34723801 69.48233551 -0.35389984 70.82991028 -0.36076355 C74 0 74 0 75.80912781 1.47831726 C76.20211563 1.98047256 76.59510345 2.48262787 77 3 C79.10332891 3.71447643 79.10332891 3.71447643 81 4 C81 4.66 81 5.32 81 6 C81.7425 6.268125 82.485 6.53625 83.25 6.8125 C85.89061949 7.95276751 87.85552844 9.09380306 90 11 C90 11.66 90 12.32 90 13 C90.99 13.33 91.98 13.66 93 14 C93 14.66 93 15.32 93 16 C93.66 16 94.32 16 95 16 C95.99 18.97 95.99 18.97 97 22 C97.66 22 98.32 22 99 22 C99.33 23.98 99.66 25.96 100 28 C100.66 28 101.32 28 102 28 C106.8353567 52.29191106 106.8353567 52.29191106 103.5625 60.6875 C102 63 102 63 101 64 C98.26105915 64.08858646 95.5474673 64.11523479 92.80859375 64.09765625 C91.98875504 64.0962413 91.16891632 64.09482635 90.32423401 64.09336853 C87.69528618 64.08775289 85.06642227 64.07519779 82.4375 64.0625 C80.65950643 64.05748701 78.88151154 64.05292376 77.10351562 64.04882812 C72.73564455 64.03777839 68.36783652 64.02050331 64 64 C63.67 63.01 63.34 62.02 63 61 C62.34 61 61.68 61 61 61 C59.5114045 58.022809 59.66733727 54.89737329 59.5 51.625 C59.23420517 45.74122938 59.23420517 45.74122938 58 40 C57.38125 39.855625 56.7625 39.71125 56.125 39.5625 C54 39 54 39 52 38 C47.95095439 37.74201968 43.9001159 37.72893071 39.84350586 37.70483398 C37.83749427 37.68771332 35.83176911 37.64382881 33.82617188 37.59960938 C24.19610069 37.51949386 24.19610069 37.51949386 16 42 C14.13061856 45.73876287 14.39117516 50.12983033 14.125 54.25 C14.03992188 55.19230469 13.95484375 56.13460937 13.8671875 57.10546875 C13.47654359 63.25005109 13.47654359 63.25005109 16.22265625 68.55859375 C23.208433 74.6993961 32.26843211 74.40319751 41.16796875 74.69140625 C45.031451 75.00253275 48.30292407 75.87556389 52 77 C53.53592469 77.21318828 55.07843519 77.38752256 56.625 77.5 C60.10308914 77.83488358 62.79146476 78.56460266 66 80 C67.6396875 80.4640625 67.6396875 80.4640625 69.3125 80.9375 C77.18674823 83.20635119 83.34485499 86.15426127 90 91 C91.051875 91.763125 92.10375 92.52625 93.1875 93.3125 C98.31058454 98.20789189 102.62535279 103.69437933 103 111 C103.66 111 104.32 111 105 111 C106.80209502 119.89143011 107.30703404 128.44109264 107.25 137.5 C107.25773438 138.72847656 107.26546875 139.95695313 107.2734375 141.22265625 C107.23946777 157.23938188 104.51445166 170.20470806 93 182 C88.9011756 185.47017035 85.07438303 188.15476981 80 190 C79.67 190.66 79.34 191.32 79 192 C68.49076633 192.0694474 57.98158706 192.12278448 47.47217083 192.15543652 C42.59244888 192.17110624 37.71288368 192.19236831 32.83325195 192.22631836 C28.12594368 192.25886528 23.41878637 192.27684317 18.71137428 192.28463173 C16.91357864 192.29018364 15.11579146 192.30102494 13.31805992 192.31719017 C10.80389796 192.33890262 8.29036336 192.34196956 5.77612305 192.34057617 C5.02949905 192.351362 4.28287506 192.36214783 3.5136261 192.3732605 C-1.56604604 192.3427086 -1.56604604 192.3427086 -3.78288269 190.59199524 C-4.1845314 190.06663681 -4.58618011 189.54127838 -5 189 C-6.0725 188.401875 -7.145 187.80375 -8.25 187.1875 C-15.67591025 183.02899026 -21.01142588 177.55942594 -25 170 C-25.875 166.4375 -25.875 166.4375 -26 164 C-26.66 164 -27.32 164 -28 164 C-32.08494937 138.28670263 -32.08494937 138.28670263 -28.60546875 131.1328125 C-27 129 -27 129 -25 128 C-20.20193035 127.71689633 -15.40304532 127.68630493 -10.59741211 127.64990234 C-8.99602717 127.63335475 -7.39471573 127.60607991 -5.79370117 127.56787109 C-3.48056884 127.51297269 -1.16916564 127.49121082 1.14453125 127.4765625 C1.85615921 127.45389313 2.56778717 127.43122375 3.30097961 127.40786743 C7.17069987 127.4242338 8.86443772 127.89476174 11.95556641 130.29443359 C14.61110106 133.80872007 14.63674808 136.76395154 14.5625 141 C14.51268999 145.15338844 14.56716528 148.26563997 16.73828125 151.94921875 C19.27925274 154.25320844 20.25394454 154.66802619 23.625 154.8125 C24.58535156 154.85761719 25.54570312 154.90273437 26.53515625 154.94921875 C28.25025391 154.97435547 28.25025391 154.97435547 30 155 C30.69593262 155.01369629 31.39186523 155.02739258 32.10888672 155.04150391 C45.09756052 155.27750107 45.09756052 155.27750107 58 154 C58.33 153.34 58.66 152.68 59 152 C59.66 152 60.32 152 61 152 C62.20192374 147.28769583 62.1482434 142.70187955 62.125 137.875 C62.12886719 137.06417969 62.13273437 136.25335938 62.13671875 135.41796875 C62.13542969 134.63808594 62.13414062 133.85820312 62.1328125 133.0546875 C62.13112061 131.99483643 62.13112061 131.99483643 62.12939453 130.91357422 C62.06552723 128.77740811 62.06552723 128.77740811 61 126 C59.25132517 124.91568906 59.25132517 124.91568906 57 124 C56.15308594 123.51789063 55.30617188 123.03578125 54.43359375 122.5390625 C50.22376473 120.65206292 46.29152286 120.00937856 41.75 119.375 C40.90679199 119.24875244 40.06358398 119.12250488 39.19482422 118.99243164 C34.09285051 118.2438206 28.99769444 117.68019315 23.859375 117.24609375 C21.38051188 116.91800892 19.29590585 115.9666972 17 115 C15.62885642 114.80412235 14.25299122 114.63979621 12.875 114.5 C9 114 9 114 6 112 C4.34394031 111.53630329 2.68738634 111.07422928 1.02734375 110.625 C-8.21883609 107.77453993 -16.47632345 103.11346588 -22 95 C-22.875 92.0625 -22.875 92.0625 -23 90 C-23.66 90 -24.32 90 -25 90 C-28.03213018 84.21138783 -28.78049783 78.56645636 -29.5703125 72.109375 C-29.90671157 68.97422268 -29.90671157 68.97422268 -31 66 C-31.23118409 62.42072639 -31.18517145 58.83596303 -31.1875 55.25 C-31.19974609 54.27289063 -31.21199219 53.29578125 -31.22460938 52.2890625 C-31.23582378 46.74167211 -30.73880345 42.25607886 -29 37 C-28.74411484 35.36088654 -28.52748711 33.71444365 -28.375 32.0625 C-28.30023438 31.29035156 -28.22546875 30.51820312 -28.1484375 29.72265625 C-28.09945313 29.15417969 -28.05046875 28.58570312 -28 28 C-27.34 28 -26.68 28 -26 28 C-25.67 26.02 -25.34 24.04 -25 22 C-24.34 22 -23.68 22 -23 22 C-22.34 20.02 -21.68 18.04 -21 16 C-20.34 16 -19.68 16 -19 16 C-18.76667969 15.42507812 -18.53335937 14.85015625 -18.29296875 14.2578125 C-15.21338714 8.88017453 -8.83385072 4.18163885 -2.875 2.5 C-1.92625 2.335 -0.9775 2.17 0 2 C0 1.34 0 0.68 0 0 Z " fill="#121213" transform="translate(359,15)"/>
<path d="M0 0 C0.73659851 -0.0049649 1.47319702 -0.00992981 2.2321167 -0.01504517 C4.67965616 -0.02970299 7.12713081 -0.03647491 9.57470703 -0.04199219 C11.27002973 -0.04774086 12.96535241 -0.05349862 14.66067505 -0.05926514 C18.22007552 -0.06978557 21.77945334 -0.07562134 25.33886719 -0.07910156 C29.90451834 -0.08458717 34.46987138 -0.10861208 39.035429 -0.13707352 C42.53895955 -0.15567877 46.04241802 -0.16090437 49.5459938 -0.16243744 C51.22934727 -0.16546952 52.91269931 -0.17351667 54.59600449 -0.18662262 C56.94965151 -0.20363876 59.30256677 -0.20181403 61.65625 -0.1953125 C62.35454926 -0.20452728 63.05284851 -0.21374207 63.77230835 -0.22323608 C68.52454058 -0.18202185 68.52454058 -0.18202185 70.78616333 1.6104126 C71.17271088 2.12215027 71.55925842 2.63388794 71.95751953 3.16113281 C73.98984195 4.3571235 73.98984195 4.3571235 76.14501953 5.34863281 C76.86044922 5.6928125 77.57587891 6.03699219 78.31298828 6.39160156 C78.85568359 6.64554688 79.39837891 6.89949219 79.95751953 7.16113281 C79.95751953 7.82113281 79.95751953 8.48113281 79.95751953 9.16113281 C80.53115234 9.4021875 81.10478516 9.64324219 81.69580078 9.89160156 C84.39751999 11.40811062 86.07995042 13.16834928 88.14501953 15.47363281 C88.83982422 16.23289062 89.53462891 16.99214844 90.25048828 17.77441406 C92.06745984 20.31484799 92.59327502 22.08951863 92.95751953 25.16113281 C93.61751953 25.16113281 94.27751953 25.16113281 94.95751953 25.16113281 C98.16863414 33.46199818 98.4121598 41.27183665 98.33251953 50.09863281 C98.34412109 51.41154297 98.35572266 52.72445312 98.36767578 54.07714844 C98.36380859 55.33076172 98.35994141 56.584375 98.35595703 57.87597656 C98.35257324 59.01156006 98.34918945 60.14714355 98.34570312 61.31713867 C97.95751953 64.16113281 97.95751953 64.16113281 96.95239258 66.03344727 C93.70027626 67.87184223 90.27531815 67.54623142 86.64111328 67.48925781 C85.42271507 67.48644806 85.42271507 67.48644806 84.17970276 67.48358154 C82.46407969 67.47686319 80.74847189 67.4629529 79.03295898 67.44238281 C76.40154853 67.41121016 73.770737 67.40140986 71.13916016 67.39550781 C69.4731372 67.38633838 67.80712035 67.3759628 66.14111328 67.36425781 C65.35151718 67.36000793 64.56192108 67.35575806 63.74839783 67.35137939 C58.19194229 67.27834419 58.19194229 67.27834419 55.95751953 66.16113281 C54.48862999 61.75446418 54.25217464 57.1883526 53.79541016 52.58496094 C53.32432106 48.22259931 52.72260241 44.22635855 50.95751953 40.16113281 C47.31652853 37.73380548 44.61084712 37.87159897 40.40283203 37.89550781 C39.66426971 37.89359436 38.9257074 37.89168091 38.1647644 37.88970947 C36.60300353 37.88834932 35.04123129 37.89203392 33.47949219 37.90039062 C31.09820887 37.9110625 28.71768517 37.90050573 26.33642578 37.88769531 C24.81689288 37.88901753 23.29736044 37.89158122 21.77783203 37.89550781 C21.06934113 37.89145935 20.36085022 37.88741089 19.63088989 37.88323975 C15.66856974 37.92048709 12.38553368 38.08160149 8.95751953 40.16113281 C6.28155023 44.86483637 6.66190599 49.8377129 6.66699219 55.08862305 C6.66027496 56.08433319 6.65355774 57.08004333 6.64663696 58.10592651 C6.6276555 61.39391076 6.62373288 64.68169095 6.62158203 67.96972656 C6.61515498 70.25749292 6.60842668 72.54525845 6.60140991 74.83302307 C6.58943732 79.62706407 6.58572915 84.421033 6.58691406 89.21508789 C6.58711742 95.35651847 6.55979724 101.49748719 6.52536964 107.63880825 C6.50312945 112.3631655 6.49907562 117.08741102 6.50013351 121.81181526 C6.49777391 124.07602597 6.48893027 126.34023958 6.47346878 128.60439873 C6.45386467 131.77134434 6.45962512 134.93728614 6.47167969 138.10424805 C6.45482117 139.50479683 6.45482117 139.50479683 6.43762207 140.93363953 C6.4926707 146.6273732 7.19495267 149.80765149 10.95751953 154.16113281 C12.89630589 155.08110211 12.89630589 155.08110211 15.01611328 155.02832031 C15.80356934 155.06538086 16.59102539 155.10244141 17.40234375 155.140625 C18.66715576 155.15077637 18.66715576 155.15077637 19.95751953 155.16113281 C20.83553223 155.18594727 21.71354492 155.21076172 22.61816406 155.23632812 C25.42015505 155.29504504 28.21748925 155.29768964 31.02001953 155.28613281 C31.96167969 155.29 32.90333984 155.29386719 33.87353516 155.29785156 C43.64842335 155.82950376 43.64842335 155.82950376 51.95751953 152.16113281 C54.76103756 142.92601461 54.55739655 132.73249566 54.95751953 123.16113281 C54.31202148 123.17160645 53.66652344 123.18208008 53.00146484 123.19287109 C50.07018952 123.23450553 47.13897649 123.26048256 44.20751953 123.28613281 C43.19173828 123.30289063 42.17595703 123.31964844 41.12939453 123.33691406 C40.14970703 123.34335938 39.17001953 123.34980469 38.16064453 123.35644531 C37.25991211 123.36691895 36.35917969 123.37739258 35.43115234 123.38818359 C32.72394466 123.13969335 31.19484142 122.69982272 28.95751953 121.16113281 C26.651996 117.90820888 26.70002091 114.91251133 26.69189453 111.00488281 C26.68802734 109.22404297 26.68802734 109.22404297 26.68408203 107.40722656 C26.69181641 106.17101562 26.69955078 104.93480469 26.70751953 103.66113281 C26.69591797 101.80681641 26.69591797 101.80681641 26.68408203 99.91503906 C26.68666016 98.7278125 26.68923828 97.54058594 26.69189453 96.31738281 C26.69415039 95.23263672 26.69640625 94.14789063 26.69873047 93.03027344 C26.96017613 90.13167963 27.28267378 88.52421684 28.95751953 86.16113281 C32.26098389 84.05353735 34.96665688 83.8989466 38.84008789 83.87060547 C40.02489243 83.85784576 41.20969696 83.84508606 42.43040466 83.8319397 C44.34454918 83.82860123 44.34454918 83.82860123 46.29736328 83.82519531 C47.61160782 83.81853851 48.92585236 83.81188171 50.27992249 83.80502319 C53.05977667 83.79306221 55.83950668 83.78934121 58.61938477 83.79052734 C62.17492761 83.79073063 65.72967199 83.763415 69.2850256 83.72898293 C72.68498347 83.70135097 76.08479457 83.70256451 79.48486328 83.70019531 C80.75893539 83.68582428 82.03300751 83.67145325 83.34568787 83.65664673 C84.53364456 83.66279999 85.72160126 83.66895325 86.94555664 83.67529297 C87.98828232 83.67244293 89.031008 83.6695929 90.10533142 83.66665649 C93.81985736 84.31063404 95.42969228 85.37041509 97.95751953 88.16113281 C98.58570862 91.2256012 98.58570862 91.2256012 98.58862305 94.86645508 C98.599356 95.86495232 98.599356 95.86495232 98.61030579 96.88362122 C98.62719773 99.08229493 98.60777654 101.27892874 98.58642578 103.47753906 C98.58725514 105.0148892 98.58971705 106.55223924 98.59373474 108.08958435 C98.59659394 111.31528357 98.58189305 114.54028902 98.55444336 117.76586914 C98.52056006 121.8724244 98.52630989 125.97772309 98.54510593 130.08433628 C98.55575676 133.26316003 98.54666226 136.44169932 98.53172112 139.62049675 C98.5265842 141.13253874 98.52696574 142.64461105 98.53326607 144.15664864 C98.56713707 157.18335947 96.17017596 168.69336171 87.95751953 179.16113281 C83.0245979 183.90544273 78.32904646 187.65283399 71.95751953 190.16113281 C71.62751953 190.82113281 71.29751953 191.48113281 70.95751953 192.16113281 C60.43101502 192.23054145 49.90456464 192.28389747 39.37787819 192.31656933 C34.49028078 192.33224756 29.60283954 192.35352501 24.71533203 192.38745117 C20.00154453 192.41996794 15.28790754 192.43796956 10.57401657 192.44576454 C8.77260339 192.45132191 6.97119876 192.46217363 5.1698494 192.47832298 C2.65308869 192.49999549 0.13695568 192.50310407 -2.37988281 192.50170898 C-3.13010208 192.51249481 -3.88032135 192.52328064 -4.65327454 192.53439331 C-6.72689819 192.52189636 -6.72689819 192.52189636 -10.04248047 192.16113281 C-10.70248047 191.17113281 -11.36248047 190.18113281 -12.04248047 189.16113281 C-12.79916016 188.86207031 -13.55583984 188.56300781 -14.33544922 188.25488281 C-17.64955162 186.91585154 -19.72095525 185.06492471 -22.35498047 182.66113281 C-23.23798828 181.86707031 -24.12099609 181.07300781 -25.03076172 180.25488281 C-27.04248047 178.16113281 -27.04248047 178.16113281 -27.04248047 176.16113281 C-27.70248047 176.16113281 -28.36248047 176.16113281 -29.04248047 176.16113281 C-29.49623047 175.19175781 -29.94998047 174.22238281 -30.41748047 173.22363281 C-31.70034268 170.090337 -31.70034268 170.090337 -34.04248047 169.16113281 C-34.04248047 120.98113281 -34.04248047 72.80113281 -34.04248047 23.16113281 C-32.72248047 22.83113281 -31.40248047 22.50113281 -30.04248047 22.16113281 C-29.93033203 21.07638672 -29.93033203 21.07638672 -29.81591797 19.96972656 C-28.038425 13.51509302 -21.43317356 8.67392209 -15.96826172 5.21582031 C-13.35270869 3.80034456 -10.71053919 2.47337222 -8.04248047 1.16113281 C-6.13082764 -0.75052002 -2.60356763 0.00414385 0 0 Z " fill="#121213" transform="translate(56.04248046875,14.8388671875)"/>
<path d="M0 0 C9.59655304 -0.06945844 19.19301977 -0.12279 28.78976917 -0.15543652 C33.24575989 -0.17110387 37.70157885 -0.19236152 42.1574707 -0.22631836 C46.4562976 -0.25887388 50.75495912 -0.27684495 55.05389977 -0.28463173 C56.69539685 -0.29018211 58.33688471 -0.30102049 59.97831154 -0.31719017 C62.2745596 -0.33891431 64.57012108 -0.3419691 66.86645508 -0.34057617 C68.17439529 -0.34723801 69.48233551 -0.35389984 70.82991028 -0.36076355 C74 0 74 0 75.79740906 1.46147156 C76.19426407 1.96918594 76.59111908 2.47690033 77 3 C78.66496154 3.67091378 80.33179696 4.33718718 82 5 C88.13185288 9.16774375 93.17665638 13.62776063 97 20 C97 20.66 97 21.32 97 22 C97.99 22.33 98.98 22.66 100 23 C100.7166207 25.31847874 101.38242027 27.65319703 102 30 C102.99 30.99 102.99 30.99 104 32 C104.39820611 36.27584873 104.32904395 40.56609349 104.31567383 44.85839844 C104.31251177 46.99205485 104.33597638 49.12432744 104.36132812 51.2578125 C104.36360088 52.60937325 104.36430472 53.96093773 104.36328125 55.3125 C104.36626221 56.54613281 104.36924316 57.77976563 104.37231445 59.05078125 C104.24945068 60.02402344 104.12658691 60.99726562 104 62 C100.16327717 64.55781522 97.05464013 64.25306456 92.61328125 64.1953125 C91.79627243 64.1924826 90.97926361 64.18965271 90.13749695 64.18673706 C87.52901541 64.17554541 84.9208777 64.1504429 82.3125 64.125 C80.54362475 64.11496888 78.77474412 64.10584326 77.00585938 64.09765625 C72.67044051 64.07560942 68.33527855 64.0410867 64 64 C63.67 63.01 63.34 62.02 63 61 C62.34 61 61.68 61 61 61 C60.95101562 59.98679688 60.90203125 58.97359375 60.8515625 57.9296875 C60.77647436 56.57810089 60.70092919 55.22653962 60.625 53.875 C60.5940625 53.20984375 60.563125 52.5446875 60.53125 51.859375 C60.28133995 47.61090409 59.66125795 43.92824534 58 40 C56.09291157 39.08571661 56.09291157 39.08571661 54 39 C52.515 38.505 52.515 38.505 51 38 C46.90673939 37.75080914 42.81342243 37.72926717 38.71313477 37.70483398 C36.70500808 37.68764982 34.69716826 37.64374576 32.68945312 37.59960938 C31.41392578 37.59123047 30.13839844 37.58285156 28.82421875 37.57421875 C27.65979248 37.55963623 26.49536621 37.54505371 25.2956543 37.5300293 C21.29697649 38.10025337 19.13589691 39.50365528 16 42 C14.00595954 45.98808092 14.72741242 50.98995527 14.6875 55.375 C14.65849609 56.42945313 14.62949219 57.48390625 14.59960938 58.5703125 C14.58704102 60.09398438 14.58704102 60.09398438 14.57421875 61.6484375 C14.55963623 62.57833496 14.54505371 63.50823242 14.5300293 64.46630859 C15.13904204 67.74959913 16.46921665 68.90010817 19 71 C25.00408348 74.44802133 32.05693205 74.43765009 38.7956543 74.62182617 C43.49510371 74.77618172 47.47288211 75.60746072 52 77 C53.39100559 77.17052608 54.78796419 77.3023694 56.1875 77.375 C62.09092912 77.93915022 67.45900901 79.97685887 73 82 C73.78117188 82.28359375 74.56234375 82.5671875 75.3671875 82.859375 C78.93544124 84.17895563 82.47542389 85.56814095 86 87 C86 87.66 86 88.32 86 89 C86.86625 89.0928125 86.86625 89.0928125 87.75 89.1875 C90.91299331 90.32969203 92.01408277 92.33142373 94 95 C94.70125 95.639375 95.4025 96.27875 96.125 96.9375 C98.40640439 99.44704483 99.11581194 101.75797713 100 105 C100.66 105 101.32 105 102 105 C102 105.66 102 106.32 102 107 C102.66 107 103.32 107 104 107 C104.06943237 115.0492212 104.12277646 123.09831782 104.15543652 131.14776421 C104.17110972 134.88523796 104.19237761 138.62250723 104.22631836 142.35986328 C104.25885367 145.9649164 104.27684054 149.56977252 104.28463173 153.17496109 C104.29018581 154.55213651 104.30103135 155.92930085 104.31719017 157.30639267 C104.33888435 159.23133631 104.34022471 161.15647712 104.34057617 163.08154297 C104.35056892 164.72701614 104.35056892 164.72701614 104.36076355 166.4057312 C104.24171158 167.2618399 104.12265961 168.11794861 104 169 C103.01 169.66 102.02 170.32 101 171 C99.98648336 172.65848177 98.98879205 174.32665961 98 176 C93.21757171 182.42211799 87.59290621 187.2389432 80 190 C79.67 190.66 79.34 191.32 79 192 C68.49076633 192.0694474 57.98158706 192.12278448 47.47217083 192.15543652 C42.59244888 192.17110624 37.71288368 192.19236831 32.83325195 192.22631836 C28.12594368 192.25886528 23.41878637 192.27684317 18.71137428 192.28463173 C16.91357864 192.29018364 15.11579146 192.30102494 13.31805992 192.31719017 C10.80389796 192.33890262 8.29036336 192.34196956 5.77612305 192.34057617 C5.02949905 192.351362 4.28287506 192.36214783 3.5136261 192.3732605 C-1.56604604 192.3427086 -1.56604604 192.3427086 -3.78288269 190.59199524 C-4.1845314 190.06663681 -4.58618011 189.54127838 -5 189 C-6.0725 188.401875 -7.145 187.80375 -8.25 187.1875 C-17.49937308 182.02732344 -24.00006955 174.80905461 -27.25 164.6875 C-33.89401252 140.65832139 -33.89401252 140.65832139 -29.60546875 132.2734375 C-28 130 -28 130 -26 128 C-23.37039373 127.81257462 -20.84806665 127.74430647 -18.21875 127.76953125 C-17.44946167 127.76998947 -16.68017334 127.77044769 -15.88757324 127.7709198 C-14.26015685 127.77394247 -12.63274336 127.78182926 -11.00537109 127.79418945 C-8.50998723 127.81242701 -6.01497475 127.81469927 -3.51953125 127.81445312 C-1.94010095 127.81936907 -0.36067317 127.82519772 1.21875 127.83203125 C2.34222839 127.83370049 2.34222839 127.83370049 3.48840332 127.83540344 C8.76785679 127.88392839 8.76785679 127.88392839 11 129 C11 129.66 11 130.32 11 131 C11.99 131.33 12.98 131.66 14 132 C14.02578125 133.16917969 14.0515625 134.33835938 14.078125 135.54296875 C14.13442367 137.09118226 14.19177062 138.6393579 14.25 140.1875 C14.26417969 140.95642578 14.27835938 141.72535156 14.29296875 142.51757812 C14.45855918 146.37583503 14.76955746 148.6067114 16.7578125 152 C19.28564549 154.2547918 20.29062168 154.66959807 23.625 154.8125 C24.58535156 154.85761719 25.54570313 154.90273437 26.53515625 154.94921875 C28.25025391 154.97435547 28.25025391 154.97435547 30 155 C30.69593262 155.01369629 31.39186523 155.02739258 32.10888672 155.04150391 C45.09756052 155.27750107 45.09756052 155.27750107 58 154 C58.33 153.34 58.66 152.68 59 152 C59.66 152 60.32 152 61 152 C61.144375 151.195625 61.28875 150.39125 61.4375 149.5625 C62 147 62 147 63 146 C63.12743425 143.56985841 63.18521121 141.18069765 63.1875 138.75 C63.19974609 138.08097656 63.21199219 137.41195312 63.22460938 136.72265625 C63.2364842 132.69313091 62.77700556 129.62424849 61 126 C60.34 126 59.68 126 59 126 C59 125.34 59 124.68 59 124 C57.576875 123.5359375 57.576875 123.5359375 56.125 123.0625 C53 122 53 122 51 121 C48.88452247 120.66197209 46.76180626 120.36878559 44.63671875 120.09765625 C43.35732422 119.92943359 42.07792969 119.76121094 40.75976562 119.58789062 C38.72596955 119.32444554 36.69194807 119.06306437 34.6574707 118.80493164 C32.69148024 118.55407116 30.72658125 118.29470363 28.76171875 118.03515625 C27.58569092 117.8844165 26.40966309 117.73367676 25.19799805 117.57836914 C22.21136876 117.03822678 19.77275845 116.20004863 17 115 C14.89733353 114.63140859 14.89733353 114.63140859 12.875 114.5 C9 114 9 114 6 112 C3.66836622 111.32741333 1.3347961 110.66152556 -1 110 C-3.3514852 109.04346365 -5.68745988 108.04718798 -8 107 C-8.70125 106.71125 -9.4025 106.4225 -10.125 106.125 C-14.34990197 103.59005882 -16.84399884 100.31200232 -19 96 C-19.99 95.67 -20.98 95.34 -22 95 C-32.60364327 79.48112626 -33.11660776 57.55812684 -30.65869141 39.49121094 C-29.03929945 30.94849517 -25.81769461 23.22654191 -21 16 C-20.34 16 -19.68 16 -19 16 C-18.67 15.01 -18.34 14.02 -18 13 C-17.34 13 -16.68 13 -16 13 C-15.67 12.01 -15.34 11.02 -15 10 C-10.53030138 5.71563035 -6.02277734 3.25474528 0 2 C0 1.34 0 0.68 0 0 Z " fill="#121213" transform="translate(728,15)"/>
<path d="M0 0 C0.92093948 -0.00426498 1.84187897 -0.00852997 2.79072571 -0.01292419 C3.79392853 -0.01247101 4.79713135 -0.01201782 5.83073425 -0.0115509 C6.89296707 -0.01490952 7.95519989 -0.01826813 9.04962158 -0.02172852 C12.56545681 -0.03123677 16.08124439 -0.03318163 19.59709167 -0.03425598 C22.04083272 -0.03746885 24.48457357 -0.04083295 26.92831421 -0.04434204 C32.0536697 -0.05033314 37.17900832 -0.05218198 42.30436707 -0.05158997 C48.86820013 -0.05148839 55.4319249 -0.06513591 61.99573231 -0.08236217 C67.0443776 -0.09348767 72.09299677 -0.095509 77.14165306 -0.09498024 C79.56132569 -0.0961597 81.980999 -0.10057959 84.40065956 -0.10831261 C87.7875842 -0.11812257 91.1742745 -0.11523022 94.561203 -0.10920715 C95.55833313 -0.11482666 96.55546326 -0.12044617 97.58280945 -0.12623596 C104.29216368 -0.09595584 109.66851512 0.31934923 115.39006042 4.13371277 C118.89181315 13.53315429 118.55998777 24.71750794 115.39006042 34.13371277 C113.0808227 37.53679994 109.20047034 38.90240924 105.39006042 40.13371277 C102.565403 40.39387902 99.97498537 40.51575567 97.15983582 40.47428894 C96.36877441 40.47472702 95.57771301 40.4751651 94.76268005 40.47561646 C92.17076679 40.47354105 89.57951571 40.45026982 86.98771667 40.42668152 C85.18168491 40.42108111 83.37564856 40.41681311 81.5696106 40.41381836 C76.83323927 40.40240462 72.09714718 40.37296753 67.36088562 40.33970642 C61.66899637 40.30351246 55.97701338 40.28982785 50.28504181 40.2723465 C41.65318758 40.24332794 33.02194515 40.1858167 24.39006042 40.13371277 C24.39006042 52.67371277 24.39006042 65.21371277 24.39006042 78.13371277 C30.21662292 78.07570496 36.04318542 78.01769714 42.04631042 77.95793152 C45.74685925 77.93237103 49.4472986 77.90830063 53.14787292 77.88957214 C59.01626814 77.85973121 64.88427171 77.82450414 70.75236511 77.7565155 C75.48565959 77.70202064 80.21853384 77.67225543 84.95211792 77.65932655 C86.7541973 77.65011795 88.55625476 77.63213549 90.3581543 77.60506248 C107.8064059 77.3534338 107.8064059 77.3534338 114.39006042 83.13371277 C118.3001131 87.04376544 117.57448651 93.18390599 117.64006042 98.44621277 C117.6787323 100.29666199 117.6787323 100.29666199 117.71818542 102.18449402 C117.39006042 106.13371277 117.39006042 106.13371277 114.39006042 115.13371277 C72.81006042 115.13371277 31.23006042 115.13371277 -11.60993958 115.13371277 C-11.93993958 113.81371277 -12.26993958 112.49371277 -12.60993958 111.13371277 C-13.26993958 111.13371277 -13.92993958 111.13371277 -14.60993958 111.13371277 C-14.60993958 76.81371277 -14.60993958 42.49371277 -14.60993958 7.13371277 C-13.94993958 7.13371277 -13.28993958 7.13371277 -12.60993958 7.13371277 C-12.32118958 6.51496277 -12.03243958 5.89621277 -11.73493958 5.25871277 C-10.43914485 2.81110051 -9.4467145 1.41461936 -6.7730608 0.51706982 C-4.47062004 0.109022 -2.3383245 0.00490816 0 0 Z " fill="#121213" transform="translate(191.6099395751953,91.86628723144531)"/>
<path d="M0 0 C42.57 0 85.14 0 129 0 C131.20054354 4.40108708 130.30950353 10.28693232 130.35009766 15.17578125 C130.36666051 16.63850817 130.39395583 18.10115403 130.43212891 19.56347656 C130.48695715 21.67555572 130.50877538 23.78574221 130.5234375 25.8984375 C130.54325684 27.16349121 130.56307617 28.42854492 130.58349609 29.73193359 C130 33 130 33 128.0272522 35.16616821 C123.93082642 37.64767795 120.68498585 37.60238799 115.98046875 37.609375 C114.69261223 37.63417938 114.69261223 37.63417938 113.3787384 37.65948486 C110.64825237 37.70790033 107.918323 37.72932106 105.1875 37.75 C103.3313523 37.77816514 101.47523046 37.80809334 99.61914062 37.83984375 C95.07947293 37.91365738 90.54011307 37.96327128 86 38 C86.00092179 38.78152372 86.00184359 39.56304745 86.00279331 40.36825371 C86.02485375 59.36263088 86.04141411 78.35700551 86.05181217 97.35139275 C86.05697393 106.53683812 86.06401434 115.72227495 86.07543945 124.90771484 C86.08538996 132.91141456 86.09185431 140.91510809 86.09408849 148.91881382 C86.09539498 153.15880354 86.0984769 157.39877556 86.10573006 161.63875961 C86.11249604 165.62610144 86.11461577 169.61341821 86.11310768 173.60076523 C86.11338375 175.06735368 86.11538546 176.53394293 86.11920547 178.00052643 C86.12415164 179.99667257 86.12239545 181.99283203 86.12025452 183.98898315 C86.12117631 185.10803984 86.1220981 186.22709652 86.12304783 187.38006401 C86 190 86 190 85 192 C71.47 192 57.94 192 44 192 C44 140.85 44 89.7 44 37 C30.8 37 17.6 37 4 37 C-1 32 -1 32 -1.58349609 28.81787109 C-1.56367676 27.64820801 -1.54385742 26.47854492 -1.5234375 25.2734375 C-1.51183594 23.9946875 -1.50023437 22.7159375 -1.48828125 21.3984375 C-1.45064529 20.05728817 -1.41288355 18.71614236 -1.375 17.375 C-1.35847848 16.0260668 -1.34413413 14.67710508 -1.33203125 13.328125 C-1.18390377 3.55171131 -1.18390377 3.55171131 0 0 Z " fill="#131314" transform="translate(556,15)"/>
<path d="M0 0 C13.53 0 27.06 0 41 0 C42.84089175 4.60222937 43.28486301 7.69753349 43.25396729 12.47705078 C43.25708727 13.22100161 43.26020725 13.96495243 43.26342177 14.73144722 C43.27138676 17.21948337 43.26508402 19.70727461 43.25878906 22.1953125 C43.26149959 23.98101952 43.26506087 25.76672542 43.26940918 27.5524292 C43.27852808 32.39944957 43.27499096 37.24638481 43.26865101 42.09340668 C43.26358846 47.1653008 43.26828318 52.23718762 43.27142334 57.30908203 C43.27506223 65.82651071 43.27026588 74.34390471 43.26074219 82.86132812 C43.24985779 92.70942273 43.25338342 102.55743452 43.264395 112.40552711 C43.27347004 120.85999574 43.27475208 129.31443944 43.26951766 137.76891136 C43.26639916 142.81879407 43.26598534 147.86863785 43.27259064 152.91851807 C43.27836661 157.66600675 43.27436255 162.41338864 43.26280212 167.16086578 C43.26015689 168.90355502 43.2609183 170.64625324 43.26532745 172.3889389 C43.27078973 174.76706382 43.26394057 177.14484614 43.25396729 179.52294922 C43.25842873 180.213127 43.26289017 180.90330479 43.26748681 181.61439705 C43.23336975 185.80650313 42.62904226 187.92739435 41 192 C27.14 192 13.28 192 -1 192 C-2.48263668 189.03472664 -2.14079789 186.02088917 -2.13371277 182.76982117 C-2.13597833 182.01618296 -2.13824388 181.26254475 -2.14057809 180.48606902 C-2.14693503 177.94732168 -2.14608764 175.40862749 -2.14526367 172.86987305 C-2.14825415 171.055053 -2.15165641 169.2402336 -2.15544128 167.42541504 C-2.16429779 162.48526927 -2.16662012 157.5451408 -2.16725707 152.60498786 C-2.16820504 148.48468269 -2.17188213 144.36438159 -2.17542917 140.24407798 C-2.18358033 130.52380056 -2.18601283 120.8035324 -2.18530273 111.08325195 C-2.18470205 101.04947758 -2.19525042 91.015757 -2.2110464 80.98199624 C-2.22411485 72.37472775 -2.22948691 63.76747685 -2.22884732 55.16019851 C-2.22859209 50.0163683 -2.23145704 44.87258584 -2.24202538 39.72876549 C-2.25169442 34.89021981 -2.25179372 30.05176763 -2.24450874 25.21321869 C-2.24346135 23.4366651 -2.24583493 21.66010573 -2.2518692 19.88356209 C-2.25957044 17.45930747 -2.25495674 15.03537724 -2.24723816 12.61112976 C-2.25238172 11.90723277 -2.25752529 11.20333578 -2.26282471 10.47810858 C-2.23307164 6.25238838 -1.63928841 4.09822101 0 0 Z " fill="#121213" transform="translate(492,15)"/>
<path d="M0 0 C1.05726791 -0.00549866 2.11453583 -0.01099731 3.20384216 -0.0166626 C4.93553398 0.00490906 4.93553398 0.00490906 6.70220947 0.0269165 C7.9219899 0.0263324 9.14177032 0.02574829 10.39851379 0.02514648 C13.7394678 0.02745512 17.07943203 0.04750807 20.42021084 0.07544231 C23.91288268 0.10045501 27.40556784 0.10279784 30.89831543 0.10754395 C37.51047038 0.11997418 44.12236066 0.15279619 50.73439908 0.1929419 C58.26272714 0.23765832 65.79106787 0.25964628 73.31949568 0.27972364 C88.80431656 0.32152898 104.28887341 0.39188168 119.77349854 0.48101807 C120.59953575 1.91442032 121.41916055 3.35151927 122.23603821 4.79016113 C122.69314713 5.59004581 123.15025606 6.3899305 123.62121677 7.21405411 C125.02819658 9.98210322 125.37919062 12.11874781 125.33209229 15.21539307 C125.32500244 16.20152588 125.3179126 17.18765869 125.31060791 18.20367432 C125.26130127 19.70220947 125.26130127 19.70220947 125.21099854 21.23101807 C125.20229736 22.75275635 125.20229736 22.75275635 125.19342041 24.30523682 C125.11259628 29.22580983 124.81188618 32.94266336 122.77349854 37.48101807 C122.11349854 37.48101807 121.45349854 37.48101807 120.77349854 37.48101807 C120.77349854 38.47101807 120.77349854 39.46101807 120.77349854 40.48101807 C116.19743167 44.74653723 110.22447074 43.8797325 104.37384033 43.82159424 C102.64636314 43.82225136 102.64636314 43.82225136 100.88398743 43.82292175 C97.08005785 43.82083292 93.27656981 43.79749649 89.47271729 43.77398682 C86.83427674 43.76839122 84.19583308 43.76412095 81.55738831 43.76112366 C75.3242686 43.75180838 69.09130719 43.72720173 62.85825711 43.69707519 C55.76035422 43.66351497 48.66244366 43.64704111 41.56448114 43.63198888 C26.96740537 43.60065163 12.37045417 43.54790127 -2.22650146 43.48101807 C-2.55650146 42.82101807 -2.88650146 42.16101807 -3.22650146 41.48101807 C-4.21650146 41.15101807 -5.20650146 40.82101807 -6.22650146 40.48101807 C-7.88690186 39.37921143 -7.88690186 39.37921143 -9.22650146 37.48101807 C-9.536885 34.94112427 -9.6708457 32.65067171 -9.66009521 30.10992432 C-9.66533707 29.39118637 -9.67057892 28.67244843 -9.67597961 27.93193054 C-9.68239753 26.41306855 -9.68106572 24.89415684 -9.67254639 23.37530518 C-9.66404289 21.05482121 -9.69278446 18.73680521 -9.72454834 16.41656494 C-9.7261607 14.93935214 -9.72558215 13.46213498 -9.72259521 11.98492432 C-9.73382919 11.2931459 -9.74506317 10.60136749 -9.75663757 9.8886261 C-9.71052505 6.69008014 -9.51443215 4.85001807 -7.52180099 2.29634476 C-4.75627228 0.10911907 -3.48707732 -0.01400433 0 0 Z " fill="#EB0338" transform="translate(186.22650146484375,14.51898193359375)"/>
<path d="M0 0 C0.99 0.33 1.98 0.66 3 1 C3.02333472 20.65341105 3.040982 40.3068193 3.05181217 59.96024132 C3.05697391 69.08515256 3.06401428 78.21005521 3.07543945 87.33496094 C3.08539002 95.28592294 3.09185432 103.23687872 3.09408849 111.18784678 C3.09539496 115.39989086 3.09847683 119.61191714 3.10573006 123.82395554 C3.11249613 127.78503258 3.11461575 131.7460844 3.11310768 135.70716667 C3.11338374 137.16407979 3.1153854 138.62099371 3.11920547 140.07790184 C3.12415179 142.06091076 3.12239542 144.04393309 3.12025452 146.02694702 C3.12163721 147.69447053 3.12163721 147.69447053 3.12304783 149.39568138 C3 152 3 152 2 154 C1.34 154 0.68 154 0 154 C0 103.18 0 52.36 0 0 Z " fill="#050505" transform="translate(639,53)"/>
<path d="M0 0 C1.05726791 -0.00549866 2.11453583 -0.01099731 3.20384216 -0.0166626 C4.93553398 0.00490906 4.93553398 0.00490906 6.70220947 0.0269165 C7.9219899 0.0263324 9.14177032 0.02574829 10.39851379 0.02514648 C13.7394678 0.02745512 17.07943203 0.04750807 20.42021084 0.07544231 C23.91288268 0.10045501 27.40556784 0.10279784 30.89831543 0.10754395 C37.51047038 0.11997418 44.12236066 0.15279619 50.73439908 0.1929419 C58.26272714 0.23765832 65.79106787 0.25964628 73.31949568 0.27972364 C88.80431656 0.32152898 104.28887341 0.39188168 119.77349854 0.48101807 C121.75349854 3.94601807 121.75349854 3.94601807 123.77349854 7.48101807 C123.11349854 7.81101807 122.45349854 8.14101807 121.77349854 8.48101807 C121.11349854 9.47101807 120.45349854 10.46101807 119.77349854 11.48101807 C119.44349854 9.83101807 119.11349854 8.18101807 118.77349854 6.48101807 C117.78349854 6.15101807 116.79349854 5.82101807 115.77349854 5.48101807 C115.27849854 4.49101807 115.27849854 4.49101807 114.77349854 3.48101807 C100.42180702 3.43423937 86.07012738 3.39913357 71.71837521 3.37739372 C65.0541836 3.36695937 58.39005321 3.35280638 51.72589111 3.33013916 C45.29386962 3.3083986 38.8618974 3.29644681 32.429842 3.29126358 C29.97667223 3.28757003 27.52350514 3.28035748 25.07035637 3.26955795 C21.63272156 3.25502715 18.19529001 3.25304082 14.75762939 3.25396729 C13.74486435 3.24677673 12.7320993 3.23958618 11.68864441 3.23217773 C3.16965256 2.98871058 3.16965256 2.98871058 -4.22650146 6.48101807 C-5.89267262 6.52165639 -7.56038241 6.52373907 -9.22650146 6.48101807 C-9.22650146 4.48101807 -9.22650146 4.48101807 -7.55315781 2.3860817 C-4.76400467 0.1023262 -3.55730677 -0.01428637 0 0 Z " fill="#C90432" transform="translate(186.22650146484375,14.51898193359375)"/>
<path d="M0 0 C1.65 0 3.3 0 5 0 C3.125 3.875 3.125 3.875 2 5 C1.91224395 7.14558827 1.89304781 9.29404421 1.90234375 11.44140625 C1.90556641 12.74658203 1.90878906 14.05175781 1.91210938 15.39648438 C1.92046599 16.7851569 1.92893095 18.17382877 1.9375 19.5625 C1.94251334 20.95507656 1.94707653 22.34765481 1.95117188 23.74023438 C1.96300566 27.1601987 1.9794912 30.58007844 2 34 C1.34 34 0.68 34 0 34 C-1.4208937 31.1582126 -1.12979255 28.74016255 -1.1328125 25.56640625 C-1.13410156 24.27798828 -1.13539063 22.98957031 -1.13671875 21.66210938 C-1.13462402 20.98946045 -1.1325293 20.31681152 -1.13037109 19.6237793 C-1.12502991 17.57398035 -1.13031546 15.52440141 -1.13671875 13.47460938 C-1.13542969 12.18490234 -1.13414062 10.89519531 -1.1328125 9.56640625 C-1.13168457 8.37990479 -1.13055664 7.19340332 -1.12939453 5.97094727 C-1 3 -1 3 0 0 Z " fill="#030304" transform="translate(556,15)"/>
<path d="M0 0 C0.66 0 1.32 0 2 0 C2.17411103 4.4161699 2.28079762 8.83146003 2.375 13.25 C2.45041016 15.13138672 2.45041016 15.13138672 2.52734375 17.05078125 C2.67307052 26.13441683 2.67307052 26.13441683 0.63769531 28.75195312 C-1.0234375 29.859375 -1.0234375 29.859375 -4 31 C-2.125 25.25 -2.125 25.25 -1 23 C-0.84733388 21.26131256 -0.75067404 19.51752499 -0.68359375 17.7734375 C-0.64169922 16.7421875 -0.59980469 15.7109375 -0.55664062 14.6484375 C-0.51732422 13.56820312 -0.47800781 12.48796875 -0.4375 11.375 C-0.39431641 10.28703125 -0.35113281 9.1990625 -0.30664062 8.078125 C-0.2003547 5.3855483 -0.09831943 2.69287747 0 0 Z " fill="#040405" transform="translate(684,21)"/>
<path d="M0 0 C0.33 0.99 0.66 1.98 1 3 C-0.36328125 5.4453125 -0.36328125 5.4453125 -2.3125 8.125 C-3.26576172 9.45917969 -3.26576172 9.45917969 -4.23828125 10.8203125 C-6 13 -6 13 -8 14 C-6.78065514 9.96678237 -5.44045073 6.45730521 -3 3 C-2.34 3 -1.68 3 -1 3 C-0.67 2.01 -0.34 1.02 0 0 Z " fill="#040404" transform="translate(710,28)"/>
<path d="M0 0 C-1.875 4.875 -1.875 4.875 -3 6 C-4.66617115 6.04063832 -6.33388095 6.042721 -8 6 C-8 4 -8 4 -6.25 1.875 C-4 0 -4 0 0 0 Z " fill="#8E0525" transform="translate(185,15)"/>
<path d="M0 0 C0.66 0.33 1.32 0.66 2 1 C0.4169423 5.2742558 -2.50568404 7.26531794 -6 10 C-6.33 9.01 -6.66 8.02 -7 7 C-4.69 4.69 -2.38 2.38 0 0 Z " fill="#040404" transform="translate(144,189)"/>
<path d="M0 0 C0.99 0.33 1.98 0.66 3 1 C-0.96 4.465 -0.96 4.465 -5 8 C-5.66 7.67 -6.32 7.34 -7 7 C-4.69 4.69 -2.38 2.38 0 0 Z " fill="#040405" transform="translate(37,22)"/>
<path d="M0 0 C0.66 0.33 1.32 0.66 2 1 C-0.97 3.475 -0.97 3.475 -4 6 C-4 5.01 -4 4.02 -4 3 C-2 1.3125 -2 1.3125 0 0 Z " fill="#040404" transform="translate(348,22)"/>
<path d="M0 0 C1.32 0 2.64 0 4 0 C3.6875 1.9375 3.6875 1.9375 3 4 C2.01 4.33 1.02 4.66 0 5 C0 3.35 0 1.7 0 0 Z " fill="#C60632" transform="translate(177,21)"/>
</svg>
