<?xml version="1.0" encoding="UTF-8"?>
<svg version="1.1" viewBox="0 0 2048 531" width="1280" height="1280" xmlns="http://www.w3.org/2000/svg">
<path transform="translate(158,39)" d="m0 0h96l27 2 16 5 16 7 13 9 9 8 9 11 7 11 8 20 3 14 2 24v33l-5 8-3 1h-72l-5-2-5-4-1-7-2-36-3-9-4-6-6-5-11-4-10-1h-59l-12 2-10 5-6 7-4 9-1 9v235l2 13 7 11 8 5 14 3h66l10-2 9-5 6-7 4-10 1-10v-56l-1-2-45-1-11-1-6-3-2-8v-55l2-8 8-4h134l9 3 3 4 1 6v130l-2 21-4 17-7 17-10 15-11 12-12 9-15 8-4 1-9 4-19 3-18 1h-82l-29-2-15-3-19-7-13-7-11-9-9-10-7-11-7-14-4-13-3-24v-261l3-20 6-18 9-16 11-13 14-11 17-9 21-7 6-1z" fill="#151415"/>
<path transform="translate(1792,39)" d="m0 0h92l27 2 16 5 16 7 12 8 10 9 7 7 10 15 6 14 5 18 2 11 1 14v25l-3 6-5 4h-77l-6-7-2-26-2-12-5-9-7-6-11-4-16-2h-44l-14 2-11 4-7 6-6 12-2 12-1 13v21l2 9 6 8 7 6 11 5 15 4 61 8 28 6 33 11 14 7 11 8 10 10 11 16 8 17 3 7 3 16 2 30v25l-2 24-5 23-6 13-7 12-8 10-9 9-14 9-16 8-4 1-9 3-15 2-18 1h-83l-29-2-15-3-16-6-14-7-10-8-7-6-10-13-9-17-5-14-3-15-2-22v-23l3-6 4-3 3-1h71l7 3 3 6 2 27 3 13 6 8 5 4 10 4 14 2h57l14-3 9-5 7-8 4-9 2-15v-21l-2-12-6-9-1-3-4-2-9-6-13-5-21-4-42-6-29-6-28-8-18-7-12-8-10-9-11-15-8-16-5-14-4-19-1-7-1-20v-22l2-28 4-17 6-16 7-13 9-11 10-10 14-9 14-7 15-5 10-2z" fill="#151415"/>
<path transform="translate(904,39)" d="m0 0h92l27 2 16 5 16 7 11 7 12 11 9 10 8 13 5 12 4 13 3 21v37l-5 6-2 1h-73l-6-2-3-4-2-16-2-18-3-10-8-9-9-4-9-2-11-1h-44l-14 2-11 4-7 6-5 9-3 15v38l3 8 7 8 8 5 13 5 15 3 48 6 17 3 28 7 23 8 16 8 11 9 7 7 11 15 8 15 6 21 2 14 1 13v41l-2 20-5 20-10 21-11 14-8 8-14 10-19 8-1 2-10 2-15 2-19 1h-82l-30-2-17-4-13-5-14-7-10-8-13-13-9-14-6-14-4-14-3-20v-38l4-5 4-2h74l4 3v2l3 1 1 2 2 28 3 13 6 8 5 4 10 4 14 2h57l14-3 11-6 7-10 3-10 1-8v-27l-2-9-6-10-12-9-12-5-17-4-49-7-29-6-28-8-19-8-11-7-7-6-9-11-9-14-5-11-5-16-4-24-1-24v-17l1-18 3-18 6-20 9-17 8-10 10-10 13-9 14-7 17-6 10-2z" fill="#151415"/>
<path transform="translate(1349,39)" d="m0 0h285l6 2 3 5 1 55-1 9-3 5-5 2-94 1-1 2-1 367-2 4h-3v4l-3 1h-72l-10-2-1-3-1-13v-360l-96-1-4-2v-2h-2l-2-5v-61l4-7z" fill="#161516"/>
<path transform="translate(448,228)" d="m0 0h272l9 6 6 9v50l-6 8-6 5-3 1-14 1h-193l1 89v21l157-1h40l13 2 8 7 3 6v49l-3 6-8 7-5 2-58 1h-203l-11-1-11-8-3-6v-239l4-7 8-7z" fill="#151415"/>
<path transform="translate(1195,39)" d="m0 0h75l6 2 2 9v440l-2 4-6 2h-66l-11-1-5-3-1-36v-400l2-13 2-3z" fill="#151415"/>
<path transform="translate(450,37)" d="m0 0h268l6 2 9 6 6 10 1 4v53l-4 10-9 8-6 4h-272l-10-7-6-7-3-7v-58l3-5 7-8 6-4z" fill="#E8063A"/>
<path transform="translate(1535,493)" d="m0 0 2 1z" fill="#898889"/>
<path transform="translate(1045,489)" d="m0 0 2 1z" fill="#151415"/>
<path transform="translate(1936,488)" d="m0 0 2 1z" fill="#151415"/>
<path transform="translate(1048,488)" d="m0 0 2 1z" fill="#151415"/>
<path transform="translate(299,488)" d="m0 0 2 1z" fill="#151415"/>
<path transform="translate(1050,487)" d="m0 0 2 1z" fill="#FDFDFD"/>
<path transform="translate(297,489)" d="m0 0" fill="#151415"/>
<path transform="translate(1053,486)" d="m0 0" fill="#151415"/>
<path transform="translate(304,486)" d="m0 0" fill="#FDFDFD"/>
</svg>
