<?xml version="1.0" encoding="UTF-8"?>
<svg version="1.1" viewBox="0 0 2048 494" width="1280" height="1280" xmlns="http://www.w3.org/2000/svg">
<path transform="translate(0)" d="m0 0h358l1 329-177 1-182-1z" fill="#FEEBB9"/>
<path transform="translate(164,7)" d="m0 0h28l22 4 14 4 11 5 1 29v75l-1 41-4 5-11 5-20 7-12 7-7 8-4 10-2 3-8-16-7-7-11-6-27-9-6-5-1-2-1-28v-45l1-34h-3l1 111 4 13 5 10 11 12 10 5 19 8 9 7 5 4 7-8 16-8 15-6 10-9 7-10 5-13 1-8 1-144 4 1 5 3-1 21-7 11 5-5 6-8 1-3-3-2v-13l10 6 16 13 8 8 13 17 4 7 8 15 7 21 3 14v37l-3 18-4 15-7 16-12 18-9 11-5 6-8 7-14 11-16 9-14 6-17 5-11 2-16 1h-11l-17-1-23-5-15-6-17-9-16-12-10-9-9-10-10-14-6-10-8-19-4-12-3-14v-39l6-25 6-15 9-17 9-12 9-11 12-11 14-10 14-8h2v14l2 1-1-16 6-3 3 1v116l4 14 7 11 7 6 24 10 7 5v2h2l2 2 5-6 8-5 17-6 9-7 7-10 5-16 1-16v-70l1-10 2-5-1-4-9 11h-2v-16l-4 1-3 8-1 9 2-9 2 1 2 12 5-4h1v8h3l1 4v26l-1 49-3 6-6 4-20 7-8 4-6 5-6 12-2 3-4-10-6-8-14-7-20-7-5-4-1-3-1-115 8-3 10-2 1 28-4 1-4-4-1-5v-13h-2v12l1 7v67l2 9 7 11 7 6 16 6 8 6 3 2 5-5 24-12 6-7 4-8 3-11-9 6-5 2h-4v-7l-3-1v-2l5-5 4-9 1-9-2 2-2 5-11 4-10 5-6 9-4-4-4-5-10-5-12-5v-31h7l3 1v2l7 2 2 2 1 15 5 10 3 4v2l5-5 5-11v-10l-5-13-4-8-2-7h-2l-1-5 4 2 5 5-3-5-2-3 3-5-1-5-3-2h-8l-4 1 1 9v11h-1l-2-7-6-2-4 1-1 4-2-7-2-17z" fill="#075AA2"/>
<path transform="translate(1328,30)" d="m0 0h40l27 5 16 5 16 7 14 9 20 18 11 16 8 15 6 18 3 16 1 9v31l-3 17-5 16-6 14-10 16-13 15-8 8-12 9-14 8-18 8-17 5-19 3h-39l-26-4-21-6-19-9-14-10-12-11-10-13-9-16-6-15-4-16-3-26 1-24 4-20 6-18 8-15 10-14 9-10 8-8 15-11 19-10 17-6 11-3zm4 22-15 5-14 9-14 14-9 14-5 11-5 15-3 14-2 15v40l3 22 7 21 7 13 8 10 10 9 9 5 14 5 12 2h18l14-3 12-5 11-7 9-8 10-13 10-21 6-20 2-12 2-26v-10l-3-27-4-15-5-12-7-13-11-13-12-9-14-7-12-3z" fill="#2A387A"/>
<path transform="translate(159)" d="m0 0h36l25 5 17 6 16 7v2l6 2 19 14 11 10v2l4 2 8 11 9 14v2h2l9 20 6 21 2 12 1 11v19l-3 22-1 4v8l4 8 5 7 22-1-10 26-5 12-6-1-3-1-13 17-12 13-10 10-17 13-15 9-16 8-22 8-24 5-9 1h-28l-25-3-28-8-23-11-12-7-12-9-10-9-8-7-11-12-10-14-1-4-8 3-3 1-13-34-2-7 22 1 11-16-4-21-1-8v-30l2-14h2l1-9 5-16 10-21 10-14 9-11 9-9 11-9 14-10 23-11 21-6zm5 7-16 3 3 21 2 3v-4l5-1 5 2 2 7h1v-11l-1-9 4-1h8l4 3-1 6-2 4 5 6-3-1-4-5h-2l1 5h2l3 9 6 13 2 6v10l-7 14-3 2-2-5-5-8-1-3-1-15-4-3-5-1v-2l-9-1h-1v31l12 5 10 5 7 9 4-5 5-5 8-4 11-4 3-6 1-1-1 9-4 9-5 5 1 3h2v7l7-1 8-5 3-2-5 16-6 8-5 4-20 9-5 4-2 2-5-5-12-6-10-4-7-6-6-10-2-9v-68l-1-6v-12h2v13l2 7 3 2 4-1-1-28-10 2-8 3 1 115 3 5 8 4 20 7 10 6 6 9 3 8 2-3 6-12 9-7 19-7 10-4 4-5 1-3 1-49v-26l-1-4h-3v-8l-3 1-3 3-2-12-2-1-2 9 1-9 3-8 4-1v16l4-2 7-9 1 4-2 5-1 18v62l-1 16-5 16-8 11-8 6-17 6-10 7-4 4-1-2h-2v-2l-9-6-22-9-7-6-7-11-4-14v-117l-5 1-4 3 1 15-2-1v-14l-6 2-19 12-15 13-9 10-11 15-11 21-5 14-5 22v39l4 18 8 20 7 14 10 14 9 11 9 9 16 12 16 9 16 7 20 5 6 1 17 1h15l18-2 19-5 15-6 15-8 16-12 12-12 9-10 12-18 5-9 6-16 4-19 1-8v-37l-5-21-5-14-8-15-4-7-10-13-11-12-13-11-12-8h-1v13l3 3-6 9-4 5-2 1 7-11 1-21-6-4h-3l-1 144-2 11-4 10-7 10-7 7-12 6-17 7-8 6-5 5-7-7-12-7-18-7-8-6-8-9-6-12-3-11-1-111h3l-1 34v45l1 28 4 5 8 4 24 8 10 6 7 7 7 15 2-3 4-10 8-9 16-8 20-7 8-5 2-3 1-41v-75l-1-29-11-5-14-4-22-4z" fill="#E6B78A"/>
<path transform="translate(989,35)" d="m0 0h111l17 2 16 5 12 7 6 5 9 14 3 10 1 8v14l-2 11-6 12-8 10-9 8-15 8-17 6h-4v2l13 1 16 5 12 7 10 8 9 12 5 10 2 9v25l-4 13-4 9-7 11-9 9-12 8-13 5-13 3-23 2h-95l-1-2 2-49 1-39v-81l-2-59zm63 21-3 2-1 20v70h20l12-2 9-5 9-8 7-11 3-11v-20l-2-10-4-9-7-8-14-7-6-1zm4 113-8 1v89l1 14h27l12-4 9-7 8-11 5-14 1-6v-21l-4-15-5-10-7-7-12-6-9-2-9-1z" fill="#2A387A"/>
<path transform="translate(714,34)" d="m0 0 40 2 14 3 10 4 9 6 9 9 8 13 4 13v28l-4 13-5 10-7 9-9 8-13 8-17 6h-2l5 10 17 28 16 26 10 15 21 32 10 15v2l-69-1-10-19-14-24-14-25-12-21-13-23-3-5-3-1 1 84 1 21v13l-62 1 1-29 1-7 1-32v-125l-2-40-1-26h55zm-21 22-1 1v102l9 1 14-2 14-5 10-8 6-9 4-10 1-7v-29l-2-12-6-10-6-5-9-4-9-2-10-1z" fill="#2A387A"/>
<path transform="translate(1657,30)" d="m0 0h44l27 5 23 8 17 8 1 2-8 28-2 9-5 1-5-5-9-10-12-9-16-8-16-4-8-1h-19l-17 4-16 7-13 9-10 9-8 11-9 16-7 19-3 15-1 9v35l3 18 7 19 7 13 11 14 14 11 10 5 15 5 14 2h22l21-3 7-3 1-36-1-33v-21h52v-1h5l-2 46v59l-9 3-26 6-15 3-29 3h-41l-22-3-22-6-20-8-18-11-12-11-5-5-8-9-8-13-6-12-5-15-4-24v-18l4-27 5-18 10-21 8-12 12-14 8-7 12-9 14-8 17-7 21-6z" fill="#2A387A"/>
<path transform="translate(1910,33)" d="m0 0h30l19 51 13 34 17 44 18 45 17 41 11 25 7 15 2 6h-65l-3-8-12-37-10-28v-3l-33-1h-56l-3 10-12 34-8 27-1 5-38 1 2-6 13-29 15-36 18-43 20-49 36-90zm0 74-10 22-15 38-9 25v4h68l-2-9-19-52-11-28z" fill="#2A397A"/>
<path transform="translate(499,30)" d="m0 0h32l19 4 14 6 10 7 1 4-8 24-3 10-1 1h-5l-8-15-5-6-11-7-9-3-6-1h-14l-13 4-8 6-7 8-3 9v10l2 9 3 6 4 5 11 9 16 9 34 17 15 10 15 15 7 11 5 12 1 6v30l-3 11-4 10-6 10-9 11-11 9-12 7-16 6-20 4-22 1-22-2-16-4-15-6-4-3 2-10 6-25 2-13 1-1h6l4 9 6 12 4 5 3 2v2l12 6 16 4h18l12-3 10-6 7-9 4-10v-19l-6-12-7-7-15-10-23-12-16-8-14-9-10-9-9-10-8-15-2-8-1-9v-17l2-15 5-13 7-12 11-12 14-10 15-6z" fill="#2A387A"/>
<path transform="translate(30,128)" d="m0 0h1v31l4 25 7 21 4 10h7l7 12 10 13 9 10 9 8 16 11 19 10 15 5 19 4 17 1h15l18-2 19-5 15-6 15-8 16-12 12-12 8-9 14-21h2v3l5-5 8-18 2-3 6 10 6 8 22-1-10 26-5 12-6-1-3-1-13 17-12 13-10 10-17 13-15 9-16 8-22 8-24 5-9 1h-28l-25-3-28-8-23-11-12-7-12-9-10-9-8-7-11-12-10-14-1-4-8 3-3 1-13-34-2-7 22 1 11-16-4-21-1-8v-30z" fill="#AF4D28"/>
<path transform="translate(865,35)" d="m0 0h62l-2 40-1 50v81l1 48 1 18v22l-61-1 1-29v-200z" fill="#29387A"/>
<path transform="translate(1328,30)" d="m0 0h40l27 5 16 5 16 7 14 9 20 18 11 16 8 15 6 18 3 16v6l-1-2-15 10-2 1-15 1-12-4-2 1-8-4-4-1v4h-2l-3-27-4-15-5-12-7-13-11-13-11-8-14-7-12-3h-29l-15 5-14 9-13 13-9 14-5 11-5 15-3 14-2 15h-1l-1-5-9 5-5 3-15 4-6-1v-2l-5-2h-8l-3-2-3-1h-6l1-12 6-21 8-16 6-10 10-13 13-13 15-11 19-10 17-6 11-3z" fill="#365595"/>
<path transform="translate(252,27)" d="m0 0 10 6 16 13 8 8 13 17 4 7 8 15 7 21 3 14v37l-3 18-4 15-7 16-12 18-9 11-5 6-8 7-14 11-16 9-14 6-17 5-11 2-15 1-1-3 1-14 15-10 26-12 10-9 6-8 6-13 2-9v-109l1-15 1-41 2-5-3-2z" fill="#045BA3"/>
<path transform="translate(1657,30)" d="m0 0h44l27 5 23 8 17 8 1 2-8 28-2 9-5 1-5-5-9-10-12-9-16-8-16-4-8-1h-19l-17 4-16 7-13 9-10 9-8 11-9 16-7 19-3 15-8 4-5 3-8 3-9 2-4-1-9-4-9-1-10-3 1-11 5-18 10-21 8-12 12-14 8-7 12-9 14-8 17-7 21-6z" fill="#4470B1"/>
<path transform="translate(164,7)" d="m0 0h28l22 4 14 4 11 5 1 29v75l-1 41-4 5-11 5-20 7-12 7-7 8-4 10-2 3-8-16-7-7-11-6-10-3-1-2 5-1v-2l2-1 1-3 7 1 14 6 5 4v2h2l2 2 5-6 8-5 17-6 9-7 7-10 5-16 1-16v-70l1-10 2-5-1-4-9 11h-2v-16l-4 1-3 8-1 9 2-9 2 1 2 12 5-4h1v8h3l1 4v26l-1 49-3 6-6 4-20 7-8 4-6 5-6 12-2 3-4-10-6-8-14-7-20-7-5-4-1-3-1-115 8-3 10-2 1 28-4 1-4-4-1-5v-13h-2v12l1 7v67l2 9 7 11 7 6 16 6 8 6 3 2 5-5 24-12 6-7 4-8 3-11-9 6-5 2h-4v-7l-3-1v-2l5-5 4-9 1-9-2 2-2 5-11 4-10 5-6 9-4-4-4-5-10-5-12-5v-31h7l3 1v2l7 2 2 2 1 15 5 10 3 4v2l5-5 5-11v-10l-5-13-4-8-2-7h-2l-1-5 4 2 5 5-3-5-2-3 3-5-1-5-3-2h-8l-4 1 1 9v11h-1l-2-7-6-2-4 1-1 4-2-7-2-17z" fill="#365495"/>
<path transform="translate(499,30)" d="m0 0h32l19 4 14 6 10 7 1 4-8 24-3 10-1 1h-5l-8-15-5-6-11-7-9-3-6-1h-14l-13 4-8 6-7 8-3 9v10l2 9 3 6 4 5 11 9 16 9 34 17-5 5h-4v2h-8l-6-1h-23v-3l-8 1h-32l-11-2-6 1-1 2-8-15-2-8-1-9v-17l2-15 5-13 7-12 11-12 14-10 15-6z" fill="#365495"/>
<path transform="translate(1910,33)" d="m0 0h30l19 51 13 34 9 23-1 3-4 1-2 3-13 4h-6v-2h-5l-1-1h-9l-4-1-3 1-5-2-1 2-15-40v-2h-2l-2 6-13 31-1-3-9 3-2 1-10-1-3-1-4 3 1-5 38-95z" fill="#365595"/>
<path transform="translate(42,110)" d="m0 0 1 2v7l5 16 5 10 7 11 6 7 10 8 14 7 10 3 4 3 4 32 3 10 5 10 8 10 13 8 23 11 10 7 3 3 1 14h-17l-23-5-15-6-17-9-16-12-10-9-9-10-10-14-6-10-8-19-4-12-3-14v-39l4-17z" fill="#045AA3"/>
<path transform="translate(865,35)" d="m0 0h62l-2 40-1 50-1 23-1-2-5 2-4 3-10 3h-9l-5-1-2-2-6-1-3 1-9-1-1 81h-1l-1-167z" fill="#365495"/>
<path transform="translate(0,209)" d="m0 0h2l13 34 2 4 7-3h3l9 14 12 14 7 7 11 9 10 8 13 8 22 11 27 8 9 2 20 2h28l20-3 19-5 18-7 6-3 3 1-17 8-17 6-15 4-30 2-182-1z" fill="#FEEBB9"/>
<path transform="translate(124,17)" d="m0 0 3 1v116l4 14 7 11 7 6 7 3-2 1-1 4h-2v2l-7 2-14-5-6-5-1-2-1-28v-45l1-34h-3v70l-1-4h-5v34h-1l-1-21h-2l-1-2-1 12-1 2-9-3-8-5-8-10-6-13-2-10 1-9 4-4-13-8-1-4 5-8 3 1 4 2 1-4 6-5 4 1-6-7 1-3 5 3 3 2 1-5 6-6 6-3h2l2-13 4-3h9l2 1-1-16z" fill="#4A84B9"/>
<path transform="translate(251,59)" d="m0 0h1v153l-3 12-7 13-9 10-8 6-24 11-14 9-1 14-1 3h-11l-2-15-7-6-23-12-14-7-8-7-8-12-4-11-2-10-1-11v-24h1l3 23 4 6 10 7 23 10 14 7 6 5 7 10 6 13 8-16 7-9 11-7 26-11 12-7 6-7 1-139z" fill="#3BAE59"/>
<path transform="translate(1568,64)" d="m0 0h6l2 1v3h28l16-1 8-3h5v3l-14 10-10 11-8 13-8 16-5 16-2 11-8 4-5 3-8 3-9 2-4-1-9-4-9-1-10-3 1-11 5-18 10-21 8-12 12-14z" fill="#365495"/>
<path transform="translate(989,35)" d="m0 0h111l17 2 16 5 12 7 6 5 7 10-1 2-4 1-4 4-13 3-14 4-6-1-12-4-1 2-6-8-9-6-7-3-6-1h-23l-2 1-1 20h-1v-13l-7 3-8 6-9 4-1 1h-7l-13-5-8-3h-3v15h-1z" fill="#4470B1"/>
<path transform="translate(714,34)" d="m0 0 40 2 14 3 10 4 9 6 9 9 4 6-1 2h-2l-5 5-22 5h-13l-10-2-1 2-6-9-7-5-15-4-10-1h-15l-1 7-6 2-9 7-11 4h-7l-12-5-5-2h-6v31h-1l-2-40-1-26h55z" fill="#4470B1"/>
<path transform="translate(1445,62)" d="m0 0 4 1 12 11 11 16 8 15 6 18 3 16v6l-1-2-15 10-2 1-15 1-12-4-2 1-8-4-4-1v4h-2l-3-27-4-15-5-12-7-13-8-10v-4l2-1 16-1 5-1 11 2h8l1-1v-5z" fill="#365495"/>
<path transform="translate(1328,30)" d="m0 0h40l27 5 16 5 16 7 14 9 6 5-2 2v6l-2 1h-10l-10-2-9 1-13 1-1 3-13-10-14-7-12-3h-29l-15 5-12 7v-2l-18 4-11 1-3 1h-13l-3-1-2-6-4-1 12-9 19-10 17-6 11-3z" fill="#4470B1"/>
<path transform="translate(690,63)" d="m0 0 2 1v95h-1l-1-13-5 2-8 5h-17l-1-1-11-2-2 1-6-1-2 1-1 60h-1v-141l6-1 17 7h7l13-5 8-7z" fill="#365495"/>
<path transform="translate(1044,65)" d="m0 0h4v83h17v1l-16 1-8 3-21 1-6-2-7-2h-9l-5 2-1-29v-52l4-1 16 7 4 1h7l7-4 8-4z" fill="#365495"/>
<path transform="translate(797,64)" d="m0 0 5 3 5 12 1 5v28l-4 13-5 10-6 8-4-2-13 6-13 3-1 1h-11l-9-4-4-2 6-9 4-10 1-7v-29l-2-16h7l3 1h13l22-5 3-4h2z" fill="#365495"/>
<path transform="translate(1155,65)" d="m0 0 4 1 3 7 2 13v14l-2 11-6 12-8 10-9 8-14 7v-2l-13 1v1l-10 2-10 1h-9v-2h-5l-1-3 12-6 8-7 7-11 3-11v-20l-2-10-1-8 6 1 9 3 9-2 16-4 7-2z" fill="#365595"/>
<path transform="translate(169,16)" d="m0 0h8l5 4-1 6-2 4 5 6-1 2-5-5-4-3 1 5h2l4 9 6 13 2 6v10l-7 14-4 2-7-11-2-5-1-15-8-4v-2l-8-1-1 2v29l18 7 7 6 3 5 7-9 10-5 11-4 2-5 2-7h1v11l-4 12-5 6h-2l3 3 1 8-14 6-6 5-4 8-2 3-3-7-5-7-15-7-12-5-7-6v-19l1-42 1 2 9 1 3-3v-8l7-3 6 3 1 2v-15z" fill="#3679B2"/>
<path transform="translate(116,58)" d="m0 0h3v79l1 28 5 5 9 4 21 7 10 6 8 8 6 13 6-12 8-9 16-8 20-7 8-5 4-4 1 3-2 11-4 10-7 10-8 8-12 6-17 7-8 6-5 5-7-7-12-7-18-7-8-6-9-10-6-12-3-11z" fill="#7CBD6A"/>
<path transform="translate(499,30)" d="m0 0h32l19 4 14 6 10 7 1 4-8 24-3 10-1 1h-5l-8-15-5-6-11-7-9-3-6-1h-14l-13 4-7 4-6 1-18 6h-8l-4-2-1-6-5 3 2-4 7-8 10-8 10-6 14-5z" fill="#4470B1"/>
<path transform="translate(115,21)" d="m0 0h2l-1 14-10 2-2 5-1 10-5 1-6 4-4 4-1 4-8-4 2 4 3 3v2l-5 1-5 4-1 3h-5v-2l-3 1-3 6 1 4 14 8-1 2-4 2-1 9 3 12 7 14 5 5v2l5 2 12 6 1-2v27l-1-2-18-6-11-8-5-5-9-11-6-13-4-23-2-10-3 3 3-9 9-17 9-12 9-11 12-11 14-10z" fill="#2D71B1"/>
<path transform="translate(126,20)" d="m0 0h1l1 7h1l1 104 3 5 16 6 13 5 9 6 6 9 2 5 2-3 6-10 9-7 19-7 10-4 3-4 1-3 1-49v-30h-3l-1-7h-2l-2 4-2-1-2-12-2 8-2 1 1-10 4-9h4v16l5-5 6-7 2 1-1 7-1 2-1 18v62l-1 16-5 16-8 11-9 7-17 6-10 7-4 4-1-3h-2v-2l-16-8-15-6-8-7-7-11-4-14z" fill="#AAD05B"/>
<path transform="translate(146,395)" d="m0 0h17l13 3 10 5 7 6 7 11 3 9 1 5v19l-4 12-6 10-8 7-10 5-15 3h-13l-16-3-8-4-10-9-6-10-3-9-1-7v-12l2-10 6-12 9-10 14-7zm1 5-8 2-8 5-7 7-5 11-2 10v15l3 13 5 9 5 6 11 6 14 2 13-2 10-6 7-8 4-9 2-9v-17l-3-14-6-10-8-7-7-3-6-1z" fill="#2D3D7E"/>
<path transform="translate(1889,395)" d="m0 0h16l16 4 10 6 7 7 7 14 2 9v16l-4 14-6 9-8 8-13 6-13 2h-12l-13-2-10-4-9-7-7-10-5-15v-19l4-13 6-9 7-7 14-7zm0 5-10 3-9 7-6 9-4 13v20l3 12 6 10 8 7 11 4h18l9-3 8-6 6-9 4-11 1-6v-15l-3-13-4-8-4-5-9-6-10-3z" fill="#2D3E7E"/>
<path transform="translate(1509,395)" d="m0 0h17l13 3 11 6 8 8 5 8 3 9 1 7v16l-3 10-6 11-8 8-14 7-12 2h-13l-13-2-10-4-10-8-7-11-3-10-1-8v-11l2-10 4-9 4-6 7-7 14-7zm1 5-9 2-11 8-6 9-3 9-1 6v16l3 14 6 10 8 7 11 4h19l9-4 7-5 7-10 3-10 1-5v-16l-2-11-6-11-5-5-9-6-8-2z" fill="#2D3D7D"/>
<path transform="translate(928,395)" d="m0 0h16l14 3 11 6 9 9 5 10 3 11v18l-5 15-8 11-10 7-13 4-8 1h-12l-16-3-10-5-9-9-7-14-2-9v-16l4-13 6-10 10-9 11-5zm0 5-9 3-9 6-6 8-4 12-1 6v15l2 11 5 10 6 7 11 6 4 1h19l10-4 9-8 6-12 2-9v-18l-3-13-7-11-8-6-7-3-5-1z" fill="#2D3D7D"/>
<path transform="translate(460,397)" d="m0 0h42l9 4 6 7 2 7-1 10-4 7-7 6-11 5h-4l22 28 9 11 4 6h-16l-9-13-10-13-9-11-5-5-5-2v44h-13l1-35v-22zm13 5v37h17l9-4 5-5 3-7v-8l-3-7-5-4-4-2z" fill="#2D3E7E"/>
<path transform="translate(1108,396)" d="m0 0 42 1 10 5 5 6 2 7-1 10-6 9-9 6-7 3h-4l10 13 11 14 11 13 3 5h-16l-12-17-13-16-7-8-2-2-5-1 1 25v19h-13zm13 6-1 15v22h18l10-5 6-7 1-10-3-9-5-4-5-2z" fill="#2C3C7D"/>
<path transform="translate(865,35)" d="m0 0h62l-2 40h-1v-9l-9 4-6 4-9 4-8-1-7-3-11-3v-2l-6 1v161h-1l-1-167z" fill="#4772B1"/>
<path transform="translate(225,394)" d="m0 0 7 6 16 17 11 12 16 17 12 13 6 6v-68h9v13l-1 21v60l-7-6-12-13-14-15-7-8-15-16-7-8-7-6v-2h-2l1 2 1 69h-10l2-37z" fill="#2C3C7D"/>
<path transform="translate(1267,394)" d="m0 0 5 3 12 13 11 12 12 13 8 8 7 8 7 7 7 8v-69h8v20l-1 74-7-6-7-8-13-14-7-8-11-12-10-10-7-8-8-7 1 2v68h-9l2-57z" fill="#2B3B7C"/>
<path transform="translate(619,395)" d="m0 0 4 1 16 17 9 10 16 17 7 7 7 8 7 7 3 4v-69h9l-1 29-1 65-5-4-7-8-12-13-18-20-12-12-7-8-7-7-2-1 1 7v63h-9l2-50z" fill="#2C3C7D"/>
<path transform="translate(1371,394)" d="m0 0 5 3 16 17 11 12 29 31 8 9v-69h9l-1 28-1 66-14-14-7-8-12-13-7-8-8-8-7-8-13-13-2-1 1 2v68h-9l2-46z" fill="#2B3B7C"/>
<path transform="translate(1967,394)" d="m0 0 5 3 14 15 9 10 31 33 10 11v-69h8l-1 94-5-4-7-8-14-15-7-8-9-10-12-12-7-8-7-7-2-1 1 14v56h-9l2-53z" fill="#2B3A7C"/>
<path transform="translate(237,33)" d="m0 0h1v134l-5 4-12 5-17 6-12 7-7 8-4 10-2 3-8-16-7-7-11-6-10-3-1-2 5-1v-2l2-1 1-3 7 1 14 6 5 4v2h2l2 2 5-6 8-5 17-6 9-7 7-10 5-16 1-16v-70l1-10z" fill="#065AA2"/>
<path transform="translate(1e3 396)" d="m0 0h11l1 1v63l3 10 4 6 5 4 10 3h13l9-3 6-5 5-11 2-14v-53h9v18l-1 35-2 15-7 14-9 7-8 3-7 1h-12l-13-2-10-6-6-9-3-12z" fill="#2D3D7E"/>
<path transform="translate(143,11)" d="m0 0h3l1 28-4 1-4-4-1-5v-13h-2v12l1 7v67l2 9 7 11 7 6 16 6 8 6 3 2 3-2 4 1 1 4-4 8-6 4h-4l-5-7-14-7-20-7-5-4-1-3-1-115 8-3z" fill="#4B7CAF"/>
<path transform="translate(0,396)" d="m0 0 40 1 10 4 5 6 2 4v17l-5 8-7 6-9 4-6 1h-19l1 42h-12zm11 6v39l1 1h16l8-3 7-7 2-5v-14l-3-6-5-4-3-1z" fill="#2D3D7E"/>
<path transform="translate(1696,394)" d="m0 0 2 3 12 29 26 60v2h-14l-7-19-6-15-34-1-3 9-9 25-3 2-7-1 3-9 16-36 15-33 6-14zm-4 20-7 14-6 15v4h27l-1-6-9-21-3-6z" fill="#2E3F7F"/>
<path transform="translate(136,18)" d="m0 0h2l2 18 3 3h3l1-21 3 4 2 18-4 3h-6l-3-2-1 40v19l6 5 12 5 16 8 8 11 4-8 7-6 14-6 12-5 3-3h2l-2 11-5 10-7 7-22 10-5 5h-3l-4-4-12-6-10-4-8-7-6-10-2-9v-68l-1-6v-9z" fill="#F0E467"/>
<path transform="translate(1571,397)" d="m0 0h13l4 10 14 37 11 26 2 4 15-38 13-36 1-3h10l-3 10-12 27-12 29-10 25-2 1h-7l-4-8-14-35-19-47z" fill="#2E3E7E"/>
<path transform="translate(174,30)" d="m0 0 4 2 5 5h3l8 6 6 4 5 6 2 7h1v22l-5 3-12 4-7 5-4 7-4-4-4-5-10-5-12-5v-31h7l3 1v2l7 2 2 2 1 15 5 10 3 4v2l5-5 5-11v-10l-5-13-4-8-2-7h-2z" fill="#1869A8"/>
<path transform="translate(327,397)" d="m0 0h47v7h-18l-17-1v34l32-1v8l-33-1 1 39 36-1v7h-48z" fill="#2E3F7F"/>
<path transform="translate(394,397)" d="m0 0h47v7h-17l-18-1v35l4-1 28-1v8l-32-1v39l35-1v7h-47z" fill="#2D3F80"/>
<path transform="translate(124,17)" d="m0 0 3 1v116l4 14 7 11 7 6 7 3-2 1-1 4h-2v2l-7 2-14-5-6-5-1-2-1-28v-45l1-34h-3v16l-1 2-5-1-1-2-1-18h11l3-5v-7l-3-6-1-17z" fill="#869EB6"/>
<path transform="translate(1910,33)" d="m0 0h30l11 29-1 2h-4l-6 4-12 6-9 1-12-3-7-3v-2h-2l-1 2 1-6 10-25z" fill="#446FB1"/>
<path transform="translate(758,397)" d="m0 0h50v7h-17l-20-1-1 34 19-1h16v7h-34v45h-13l1-35v-21z" fill="#2D3E7E"/>
<path transform="translate(1733,396)" d="m0 0 68 1v7h-27l-1 2v82h-12l-1-1 1-83h-29v-7z" fill="#2F3F7E"/>
<path transform="translate(164,7)" d="m0 0h28l13 2 3 2-1 50h-1l-3-9-3-3v-2l-5-2-8-7h-2v-2h-2l-5-7 3-5-1-5-3-2h-8l-4 1 1 9v11h-1l-2-7-6-2-4 1-1 4-2-7-2-17z" fill="#075CA4"/>
<path transform="translate(226,42)" d="m0 0h1v8h3l1 4v26l-1 49-3 6-6 4-20 7-8 4-6 5-6 12-2 3-4-10v-2l5-1 5-5 2-5-1-4-5 1 2-4 26-13 6-7 4-8 3-13v-39l-1-13z" fill="#065AA3"/>
<path transform="translate(108,35)" d="m0 0h9l5 5 1 3v7l-3 5-1 1h-7l-4-1 2 20 3-1v2h2l1-2v54l-1-4h-5v34h-1l-1-21h-2l-1-2-1-17-3-7-4-4v-15l4-4h2v-46l2-5z" fill="#7D9CBA"/>
<path transform="translate(826,396)" d="m0 0h12v86l36-1v8l-48-1z" fill="#2C3C7E"/>
<path transform="translate(928,395)" d="m0 0h16l14 3 11 6 9 9 5 10 3 11v5l-1-4h-11v13h-1l-2-20-4-11-6-8-10-6-8-2h-15l-9 3-9 6-5 7-4 12-1 6-3-1-9 2-1 6h-1v-8l4-13 6-10 10-9 11-5z" fill="#395898"/>
<path transform="translate(146,395)" d="m0 0h17l13 3 10 5 7 6 7 11 3 9 1 9-2-3-11 1-1-1-3-14-6-10-9-7-5-2-6-1h-14l-8 2-8 5-7 8-4 9-2 10-7-1-5 1-1 13h-1v-12l2-10 6-12 9-10 14-7z" fill="#3C5A98"/>
<path transform="translate(1509,395)" d="m0 0h17l13 3 11 6 8 8 5 8 3 9v4l-7 2h-6l-2-11-6-11-5-5-8-5-8-2h-14l-9 2-11 8-5 8-3 9-2 7-11 1-1 11h-1v-11l2-10 4-9 4-6 7-7 14-7z" fill="#3A5998"/>
<path transform="translate(1889,395)" d="m0 0h16l16 4 10 6 7 7 7 14 1 8-9 1-3 1-2-7-4-12-5-7-9-6-10-3h-15l-10 3-9 7-5 8-5 16h-12l-1 3 1-10 5-12 9-10 9-6 11-4z" fill="#395898"/>
<path transform="translate(147,44)" d="m0 0h3l1 38 18 7 7 6 3 5 7-9 10-5 11-4 2-5 2-7h1v11l-4 12-5 6-16 8-8 5-10-6-10-4-8-7-4-8-1-4v-38z" fill="#F0E566"/>
<path transform="translate(1267,394)" d="m0 0 5 3 12 13 11 12 10 11-3 1-9 4-15-16-5-4 1 2v68h-9l2-57z" fill="#3B5B99"/>
<path transform="translate(619,395)" d="m0 0 4 1 16 17 9 10 8 9-8 6h-3l-14-15-6-5 1 7v63h-9l2-50z" fill="#3B5A99"/>
<path transform="translate(1967,394)" d="m0 0 5 3 14 15 9 10 10 11-4 2-6 1-1 3-15-16-6-5 1 14v56h-9l2-53z" fill="#385797"/>
<path transform="translate(225,394)" d="m0 0 7 6 16 17 11 12 4 5-11 2-1 2-19-19v-2h-2l1 2 1 69h-10l2-37z" fill="#3A5998"/>
<path transform="translate(74,396)" d="m0 0h12v93l-12-1z" fill="#2C3C7D"/>
<path transform="translate(1371,394)" d="m0 0 5 3 16 17 11 12 5 6-3 2-7 1-1 2-18-18-2-1 1 2v68h-9l2-46z" fill="#395897"/>
<path transform="translate(1816,396)" d="m0 0 12 1 1 2-1 89h-12z" fill="#2A397A"/>
<path transform="translate(1228,396)" d="m0 0h12v92h-12z" fill="#2C3B7C"/>
<path transform="translate(116,58)" d="m0 0h3v79l1 28 5 5 9 4 21 7 10 6 7 7-1 3-8-6-4 1-3 1-23 1-2 3-3-1-5-7-6-15-1-5z" fill="#A7BD54"/>
<path transform="translate(580,397)" d="m0 0h12v91h-12z" fill="#2D3C7D"/>
<path transform="translate(48,95)" d="m0 0h1l4 23 2 11 8 16 8 10 14 10 9 3 9 4 1 2v10l-11-4-10-4-11-7-8-7-9-12-5-8-6-16-2-7v-8l-1-3 3-9z" fill="#1569A8"/>
<path transform="translate(251,59)" d="m0 0h1v153l-3 12-4 8-4 1-8-3h-14l-14-4v-2l26-11 12-7 6-7 1-139z" fill="#89A059"/>
<path transform="translate(150,51)" d="m0 0h7l3 1v2l7 2 2 2 1 15 5 10 3 4v2l5-5 2-3h2v-2l3 1 1 7-5 5-6 9-4-4-4-5-10-5-12-5z" fill="#4982B6"/>
<path transform="translate(64,90)" d="m0 0 6 2 5 2 2 1-1 2-4 2-1 9 3 12 7 14 5 5v2l5 2 12 6v11l-13-4-9-6-11-12-4-8-4-12-2-9v-16l1-2z" fill="#367DB5"/>
<path transform="translate(105,175)" d="m0 0h1l3 23 4 6 10 7 23 10 14 7-1 2-4-1-16 1h-13l-9 1-4 1-4-8-3-14-1-11z" fill="#7BB866"/>
<path transform="translate(120,128)" d="m0 0 5 1 4 13 4 10 8 10 8 5 3 2h-2l-1 4h-2v2l-7 2-14-5-6-5-1-2v-15z" fill="#357AB2"/>
<path transform="translate(241,163)" d="m0 0 1 3-2 11-4 10-5 7-11-1h-16l-2-1v-2l-4-1-2-3 8-5 25-9 8-5z" fill="#A7D05B"/>
<path transform="translate(105,30)" d="m0 0h1v7l-2 5-1 10-5 1-6 4-4 4-1 4-8-4 2 4 3 3v2l-5 1-5 4-1 3h-5l-2-6 1-6 7-10 12-13 6-4 11-8z" fill="#387DB5"/>
<path transform="translate(213,12)" d="m0 0 9 1 15 6 2 1 1 29v75l-1 41h-1l-1-131-2 1v-6l-5 5-5 6h-2v-16l-4 1-3 8h-3z" fill="#295799"/>
<path transform="translate(179,43)" d="m0 0 3 3 5 11 2 6v10l-7 14-4 2-7-11-2-5v-10l4-10z" fill="#F1E765"/>
<path transform="translate(37,107)" d="m0 0 3 4-1 11-2 8v39l4 18 8 20 3 8-6 1-5-11-7-21-4-25v-36l2-4 1 3 3-14z" fill="#E3BA92"/>
<path transform="translate(143,11)" d="m0 0h3l1 28-4 1-4-4-1-5v-13h-2v12l1 7-2 34h-5l-1-10-1-45 8-3z" fill="#3B74AF"/>
<path transform="translate(169,16)" d="m0 0h8l5 4-1 6-2 4 5 6-1 2-5-5-4-3 1 5h2l3 7-6 11-4-5-10-8h-6l-2 1-1-2v-8l7-3 6 3 1 2v-15z" fill="#3071B0"/>
<path transform="translate(1696,394)" d="m0 0 2 3 12 29 3 9-8 1-2 3-8-19-2-5-3 4-7 16-1-2-6 3 2-6 15-34z" fill="#395898"/>
<path transform="translate(135,49)" d="m0 0h1l1 55 2 9 4 10v4h-2l-2 4-4 4-4-2-2-2v-70h1l1 9h3z" fill="#7C9BBA"/>
<path transform="translate(200,100)" d="m0 0 4 2 1 8-14 6-6 5-4 8-2 3-3-7-5-7-12-6-1-2h2v-8l9 3 11 6 9-6z" fill="#3674AE"/>
<path transform="translate(1733,396)" d="m0 0 68 1v7h-27l-2 3-7 1-3-1v6h-1v-9h-29v-7z" fill="#4672B1"/>
<path transform="translate(1571,397)" d="m0 0h13l4 10 9 24v3l-8 2-2 2-15-36z" fill="#385797"/>
<path transform="translate(217,42)" d="m0 0h1l1 61-8 5-7 1v-7l-3-1v-2l5-5 4-9 2-5 1-24 1-11z" fill="#1768A7"/>
<path transform="translate(1816,396)" d="m0 0 12 1 1 2-1 48h-1l-1-15-7 4-1 30h-1z" fill="#385A9A"/>
<path transform="translate(145,45)" d="m0 0h1l1 38 4 10 4 5 5 4v8l-4 1-12-5-5-4v-34l5 2z" fill="#7999B9"/>
<path transform="translate(1e3 396)" d="m0 0h11l1 1-1 56h-1l-1-17-7 1-2 4z" fill="#3B5A99"/>
<path transform="translate(74,396)" d="m0 0h12v19l-1 39h-1l-1-20-8 1-1-2z" fill="#385797"/>
<path transform="translate(219,24)" d="m0 0h4v16l5-5 6-7 2 1-1 7-1 2-1 18v62l-1 16h-1l-1-10v-74h-3l-1-7h-2l-2 4-2-1-2-12-2 8-2 1 1-10z" fill="#69A497"/>
<path transform="translate(826,396)" d="m0 0h12v23l-1 16h-6l-4 1-1-7z" fill="#365495"/>
<path transform="translate(580,397)" d="m0 0h12v27l-1 12-1-2-7 2-1 17h-1l-1-41z" fill="#365697"/>
<path transform="translate(1228,396)" d="m0 0h12v22l-1 17h-9l-1 2-1-13z" fill="#365495"/>
<path transform="translate(0,396)" d="m0 0 40 1 10 4 4 4-1 2-8 1-2 2-5-5-4-2-23-1v8l-2-3-8 1v71h-1z" fill="#4875B3"/>
<path transform="translate(124,17)" d="m0 0 3 1-1 38-1 16-5-3-1-11h-3v16l-1 2-5-1-1-2-1-18h11l3-5v-7l-3-6-1-17z" fill="#4B7FB3"/>
<path transform="translate(1763,62)" d="m0 0 2 1-1 7-5 20-5 1-5-5-9-10-5-4v-2l9-2 11-2z" fill="#395897"/>
<path transform="translate(126,20)" d="m0 0h1l1 7h1l1 104 3 5 16 6 4 2-3 1-14-3-2 1-1 6-3-1-4-14z" fill="#E4E163"/>
<path transform="translate(176,401)" d="m0 0 8 1 9 7 7 11 3 9 1 9-2-3-11 1-1-1-3-14-6-10-7-6z" fill="#3A5998"/>
<path transform="translate(460,397)" d="m0 0h42l9 4 3 4-9 3-1 2-5-5-4-2-22-1v37h-1l-1-33-7 2-1 1-1 22h-1z" fill="#4A76B2"/>
<path transform="translate(1968,432)" d="m0 0h6v56h-9l2-53z" fill="#344683"/>
<path transform="translate(109,73)" d="m0 0 1 2 3-1v2h2l1-2v54l-1-4h-5v34h-1l-1-21h-2l-1-2v-6l4 1z" fill="#7D9CBB"/>
<path transform="translate(394,397)" d="m0 0h47v7h-17l-18-1v34h-1l-1-29-3-1-6 1v27h-1z" fill="#4875B2"/>
<path transform="translate(327,397)" d="m0 0h47v7h-18l-17-1v14h-1l-1-9-9 1v30h-1z" fill="#4974B2"/>
<path transform="translate(200,295)" d="m0 0 7 1 5 5 1 2v7l-3 5-5 3-9-1-5-6v-9l4-5z" fill="#FBF1E6"/>
<path transform="translate(758,397)" d="m0 0h50v7h-17l-20-1-1 6-1-2h-8l-1 25h-1z" fill="#4774B2"/>
<path transform="translate(1542,402)" d="m0 0 9 3 7 7 5 8 3 9v4l-7 2h-6l-2-11-6-11-5-5v-5z" fill="#395898"/>
<path transform="translate(906,404)" d="m0 0h5l1 4-7 9-4 12-1 6-3-1-9 2-1 6h-1v-8l4-13 6-10 6-6z" fill="#395898"/>
<path transform="translate(226,433)" d="m0 0 4 1 1 10 1 44h-10l2-37z" fill="#2D3E7F"/>
<path transform="translate(233,287)" d="m0 0h6l4 5 3 1v9l-3 5-3 2h-9l-5-4-2-5 1-6 5-6z" fill="#FAEFDF"/>
<path transform="translate(1108,396)" d="m0 0 42 1 10 5 2 3-9 2h-3l-8-4-21-1v15h-1v-11l-9 2-2 4-1-7z" fill="#4875B2"/>
<path transform="translate(1272,431)" d="m0 0h1l1 35v22h-9l2-39 1-17z" fill="#2B3B7C"/>
<path transform="translate(1376,431)" d="m0 0h1l1 37v20h-9l2-46 1-10z" fill="#2C3B7C"/>
<path transform="translate(620,434)" d="m0 0 2 1 3-1 1 31v23h-9l2-50z" fill="#2D3D7E"/>
<path transform="translate(1865,405)" d="m0 0h9l-2 4-7 10-5 16h-12l-1 3 1-10 5-12 8-9z" fill="#385797"/>
<path transform="translate(48,406)" d="m0 0 7 1 2 4v17l-5 8-2 1-10-2 4-8v-19z" fill="#375797"/>
<path transform="translate(1074,397)" d="m0 0h9v18l-1 35h-1l-1-11-3 3-2-2-1-25z" fill="#3A5897"/>
<path transform="translate(156,1)" d="m0 0 4 1-28 8-16 6-18 10-11 8-14 12-8 9-12 17-8 16-5 11-4 14-3 14h-1v-8l4-17 8-19 7-13 8-11 9-11 9-9 11-9 14-10 23-11 21-6z" fill="#AF4D28"/>
<path transform="translate(1158,405)" d="m0 0h5l3 5 1 10-3 9-6 7-1-2-6 1-3-2 5-6 1-10-2-10z" fill="#3A5998"/>
<path transform="translate(200,132)" d="m0 0 5 1 1 6-2 4 2 1-12 5-7 6-6 12-2 3-4-10v-2l5-1 5-5 2-5-1-4-5 1 2-4 14-7z" fill="#1964A3"/>
<path transform="translate(511,405)" d="m0 0 5 1 3 9-1 10-4 7-5 4v-2l-10 1 1-2h2l2-4 2-6v-8l-1-7z" fill="#395898"/>
<path transform="translate(108,35)" d="m0 0h9l5 5 1 3v7l-3 5-1 1h-7l-8-7-1-7 2-5z" fill="#FDFCFA"/>
<path transform="translate(146,395)" d="m0 0h17l13 3 6 3-2 1-5 1-3 1-5-2-6-1h-14l-8 2-8 5-2 1v-2h-8l-7 6 2-4 8-7 11-5z" fill="#4974B2"/>
<path transform="translate(166,137)" d="m0 0 5 1 5 3 4 3 3-2 4 1 1 4-4 8-6 4h-4l-5-7-9-5 3-3z" fill="#2B6DAD"/>
<path transform="translate(1762,407)" d="m0 0h10v28l-9 1-1 23h-1v-46z" fill="#365495"/>
<path transform="translate(1114,406)" d="m0 0h6v30h-9l-1 12h-1v-36l2-5z" fill="#365495"/>
<path transform="translate(1889,395)" d="m0 0h16l16 4 7 4-2 1h-6l-1 3-10-5-5-1h-15l-10 3-5 3v-2l-9 1h-3l9-6 11-4z" fill="#4874B2"/>
<path transform="translate(1644,397)" d="m0 0h10l-3 10-12 27-2 3v-3l-6 1 3-10z" fill="#3A5A99"/>
<path transform="translate(9,406)" d="m0 0 2 4v31h-1v-6l-8 1v29h-1v-57z" fill="#365495"/>
<path transform="translate(928,395)" d="m0 0h16l14 3 10 5-3 1-4-1-4 3-9-4-5-1h-15l-9 3-7 4-1-3h-7l4-4 9-4z" fill="#4975B2"/>
<path transform="translate(293,397)" d="m0 0h9v13l-1 21-4 6h-1l-1 30-2-1z" fill="#3C5D9C"/>
<path transform="translate(1509,395)" d="m0 0h17l13 3 9 5-2 1-6-1-1 4-10-5-5-1h-14l-9 2-4 2v-2l-12 3h-3l9-6 7-3z" fill="#4975B2"/>
<path transform="translate(164,297)" d="m0 0h7l4 4 1 13-3 4-7 1-6-2-1-1 1-13 3-5z" fill="#FBF3E8"/>
<path transform="translate(2036,397)" d="m0 0h8v18l-1 59h-1v-42h-3l-1 22h-1z" fill="#405E9B"/>
<path transform="translate(1336,397)" d="m0 0h8v20l-1 62h-1l-1-46h-3v11h-1z" fill="#42609C"/>
<path transform="translate(217,33)" d="m0 0 2 1 3 15 1 11v39l-3 3h-2l-1-59-3 2-1-1v-7l2-1v6z" fill="#3C5D97"/>
<path transform="translate(401,406)" d="m0 0 4 2v28h-9v16h-1v-44z" fill="#365495"/>
<path transform="translate(688,397)" d="m0 0h9l-1 29-1 12-4-4-1 20h-1z" fill="#395999"/>
<path transform="translate(567,61)" d="m0 0h3l-1 8-5 16-1 1h-5l-8-15 1-4 12-4z" fill="#395898"/>
<path transform="translate(1440,397)" d="m0 0h9l-2 73h-1l-1-38-2-1-1 6h-1z" fill="#3A5B9C"/>
<path transform="translate(110,124)" d="m0 0h5l1 4 1 34v11l-1-3-6-1-1-3z" fill="#3678B1"/>
<path transform="translate(334,407)" d="m0 0 4 1 1 29-10-1-1 2v-29z" fill="#365495"/>
<path transform="translate(761,407)" d="m0 0h8l1 2v27l-10 1v-28z" fill="#365495"/>
<path transform="translate(116,286)" d="m0 0 6 1 4 4-1 6-4 12-5-1-1-3v-4l-2 5-5-1-1-5 6-12z" fill="#FAEDDC"/>
<path transform="translate(469,405)" d="m0 0 3 1v30l-1-2-9 1v-26l4-3z" fill="#365495"/>
<path transform="translate(259,274)" d="m0 0h8l6 8 3 6-1 3-5-1-3-2 2 6-5 3-7-10-1-2v-8z" fill="#FBF4E9"/>
<path transform="translate(104,118)" d="m0 0h1l1 17 3 2 1 32-1 11v8l-2 3-1-9-1 10h-1z" fill="#365495"/>
<path transform="translate(189,60)" d="m0 0 5 1 4 6 3 9v6l-1 2 3 1-12 4-2-1 1-1-1-7-2-1v2l-2-1 3-7z" fill="#2C6DAE"/>
<path transform="translate(138,39)" d="m0 0 1 2 8 2v2h-2v27l-5-3-1 32-2-1v-19z" fill="#5076A4"/>
<path transform="translate(169,16)" d="m0 0h8l5 4-1 6-2 4 5 6-1 2-5-5-6-5-2 10-3 1-2-12v-9z" fill="#7D9CBB"/>
<path transform="translate(160,102)" d="m0 0 9 3 7 4v3l5 1v8l-1 2h-3l-1 2-5-7-12-6-1-2h2z" fill="#497CAF"/>
<path transform="translate(242,22)" d="m0 0 4 1 5 3-1 21-6 9-1 4h-1z" fill="#175FA3"/>
<path transform="translate(105,53)" d="m0 0 3 1 1 9v67l-4-1 1-74z" fill="#E7BC8C"/>
<path transform="translate(90,272)" d="m0 0 6 1 4 3-1 5-6-2 2 9-5 5-6-1-5-5 2-4 7 2-2-5 1-6z" fill="#FAF0E4"/>
<path transform="translate(157,14)" d="m0 0 5 2 3 4 1 7v11h-1l-2-7-6-2-4 1-1 4-2-7 1-12z" fill="#1769A8"/>
<path transform="translate(219,24)" d="m0 0h4v16l5-5 6-7 2 1-1 7-3 11-4 2 1-11-4 5-4 4-1-1-2-12-2 8-2 1 1-10z" fill="#F1F4F8"/>
<path transform="translate(252,48)" d="m0 0h1v40h-1l-1-28-1 139h-1l-1-143-2 1 2-4z" fill="#375696"/>
<path transform="translate(137,159)" d="m0 0 8 6 7 3-2 1-1 4h-2v2l-7 2-14-5-1-2 9-3 3-6z" fill="#2A6AAB"/>
<path transform="translate(120,128)" d="m0 0 5 1 4 13 2 6v4l-2 1h-8l-1 9h-1v-12z" fill="#4982B8"/>
<path transform="translate(217,42)" d="m0 0h1v30l-2 11-4 2-2 4 1-8 1-1 1-24 1-11z" fill="#045AA3"/>
<path transform="translate(115,21)" d="m0 0h2l-1 14-10 1-2-3h-2l-11 8-5 2 6-8 21-13z" fill="#3B71AC"/>
<path transform="translate(258,309)" d="m0 0 3 1-17 8-17 6-15 4-30 2-29-2-11-2v-1l25 2h28l20-3 19-5 18-7z" fill="#EBBD8F"/>
<path transform="translate(230,124)" d="m0 0h1v14l-4 12-2 3-2-1 1-9-3-1-18 6-7 2 5-5 22-8 5-5z" fill="#E3E166"/>
<path transform="translate(124,17)" d="m0 0 3 1-1 24-2 4-5-9-1-17z" fill="#3073B1"/>
<path transform="translate(136,18)" d="m0 0h2l2 18 3 3h3l1-21 3 4 2 18-4 3h-6l-5-5-2-8v-9z" fill="#FBF3EC"/>
<path transform="translate(826,396)" d="m0 0h12v23h-1l-1-12h-8l-1 22h-1z" fill="#527CB4"/>
<path transform="translate(111,37)" d="m0 0 5 1 4 5v8l-2 2-7-1-3-3-1-8z" fill="#3F7BB1"/>
<path transform="translate(227,50)" d="m0 0h3l1 4v26l-1 49h-1l-1-16v-36z" fill="#36628B"/>
<path transform="translate(147,44)" d="m0 0h3v38h-2v5l-2-4v-38z" fill="#EBBC8E"/>
<path transform="translate(139,14)" d="m0 0h5l1 2 1 19 1 4-4 1-4-4-1-9z" fill="#1C6BA7"/>
<path transform="translate(1228,396)" d="m0 0h12v22h-1l-1-11h-8l-1 17h-1z" fill="#527EB5"/>
<path transform="translate(1e3 396)" d="m0 0h11l1 1v9l-2 2v-2l-5 1h-3l-1 17h-1z" fill="#507AB3"/>
<path transform="translate(150,169)" d="m0 0 7 1 8 3-2 1-2 4-7 3-11-3-1-2 5-1v-2l2-1z" fill="#1764A4"/>
<path transform="translate(116,58)" d="m0 0h3v26h-1l-1 68h-1z" fill="#EBBC8E"/>
<path transform="translate(1571,397)" d="m0 0h13l3 7-1 3-9 1-1 4-5-13z" fill="#4571B1"/>
<path transform="translate(110,124)" d="m0 0h5l1 4v25h-1v-7h-4l-1 4z" fill="#4984B9"/>
<path transform="translate(580,397)" d="m0 0h12v27h-1v-18l-9 2-2 4z" fill="#517BB4"/>
<path transform="translate(331,203)" d="m0 0 4 4 22-1 1 4-6 16-8 21-4 1-8-3 2-2 4 2h4l11-30 3-6-21 1-4-5z" fill="#EBBC8E"/>
<path transform="translate(74,396)" d="m0 0h12v19h-1v-10l-9 3-2 4z" fill="#517BB3"/>
<path transform="translate(140,294)" d="m0 0 6 1-2 13-2 7h-5l-1-1 1-9z" fill="#FAEFE2"/>
<path transform="translate(689,87)" d="m0 0 3 1v71h-1l-2-56z" fill="#4D83B7"/>
<path transform="translate(217,33)" d="m0 0 2 1 3 16-1 11-1 1-1 30h-1l-1-49-3 2-1-1v-7l2-1v6z" fill="#3C70AD"/>
<path transform="translate(166,137)" d="m0 0 5 1 2 1 1 8-2 4h-5l-7-4 3-3z" fill="#3477B0"/>
<path transform="translate(129,42)" d="m0 0h1l1 8 4-1v22h-5l-1-10z" fill="#4984B9"/>
<path transform="translate(125,42)" d="m0 0h1v14l-1 16-5-3-1-14 3-5 1-5z" fill="#4B85B9"/>
<path transform="translate(200,100)" d="m0 0 4 2 1 8-8 3-4-1-2-8z" fill="#2D6EAE"/>
<path transform="translate(169,16)" d="m0 0h8l5 4-1 6-2 4 5 6-1 2-5-5-6-5-2 10h-1v-13h10l-3-7h-6l-4 2 1-3z" fill="#FEFEFE"/>
<path transform="translate(1816,396)" d="m0 0 12 1 1 2-1 6-10 1-1 6h-1z" fill="#4D78B3"/>
<path transform="translate(1074,397)" d="m0 0h9v18h-1l-1-9-5 2v6l-2 1z" fill="#4E79B3"/>
<path transform="translate(126,20)" d="m0 0h1l1 7h1v41l-3-1z" fill="#ADD05D"/>
<path transform="translate(109,169)" d="m0 0 7 1 3 7v4l-9 1-2-3z" fill="#1868A7"/>
<path transform="translate(213,12)" d="m0 0h6l-1 15-2 6h-3z" fill="#065CA4"/>
<path transform="translate(66,75)" d="m0 0 3 1-4 6-1 4 6 1 2-4 4-2-2 5v4l6 4v2l-5-1-13-8-1-4z" fill="#FEFEFE"/>
<path transform="translate(187,79)" d="m0 0 3 1 1 7-5 5-3 2-1-4-4-1 5-5 2-3h2z" fill="#377AB3"/>
<path transform="translate(126,67)" d="m0 0 3 1v30h-3z" fill="#EBBC8E"/>
<path transform="translate(115,21)" d="m0 0h2l-1 14h-7v-8l-2-1z" fill="#216DA9"/>
<path transform="translate(2036,397)" d="m0 0h8v18h-1l-1-9-6 2z" fill="#567FB4"/>
<path transform="translate(1644,397)" d="m0 0h10l-3 10-7-2-2 1z" fill="#4672B2"/>
<path transform="translate(1336,397)" d="m0 0h8v20h-1l-1-12h-5v5h-1z" fill="#4E7AB4"/>
<path transform="translate(143,11)" d="m0 0h3l1 27-2-3-1-21h-5v13h-1v-9h-2l-1 3v-6l-3-1z" fill="#3C5589"/>
<path transform="translate(234,292)" d="m0 0 8 1v1l-7 1 4 5-1 4h-5l-3-3v-6l4-1z" fill="#E5B184"/>
<path transform="translate(1696,394)" d="m0 0 2 3 3 9-6-1-6 2 3-9z" fill="#4975B2"/>
<path transform="translate(129,36)" d="m0 0h6v13l-5 2z" fill="#367DB5"/>
<path transform="translate(688,397)" d="m0 0h9l-1 9h-6l-2 1z" fill="#4E77B3"/>
<path transform="translate(229,37)" d="m0 0h1l-1 8-1 4 3-2 2-3-1 36h-1l-1-30h-3l-1-7v-3z" fill="#779DB2"/>
<path transform="translate(127,97)" d="m0 0 2 1v18l-1 13h-1l-1-9v-22z" fill="#F2E667"/>
<path transform="translate(287,75)" d="m0 0 4 1-11 7-5 2 4 10-3-1-4-7v-3z" fill="#FEFEFE"/>
<path transform="translate(267,52)" d="m0 0h3l-2 4-6 7-3 3 6 8-5-1-4-4 1-5z" fill="#FEFEFE"/>
<path transform="translate(147,18)" d="m0 0 3 4 1 5v9l-3 4-2-1z" fill="#FEEBBB"/>
<path transform="translate(111,159)" d="m0 0 4 1 2 9-1 4v-3l-6-1-1-9z" fill="#2E6FB0"/>
<path transform="translate(1967,394)" d="m0 0 5 3 4 4v2l-4 2h-3l-1 2-1-3z" fill="#4E78B3"/>
<path transform="translate(251,19)" d="m0 0 6 2 13 9 10 8 1 2-5-2-13-10-12-8z" fill="#AF4D28"/>
<path transform="translate(79,60)" d="m0 0 5 3 7 7 4-1 6-4-2 5-4 4-5-1-9-10h-3z" fill="#FEFEFE"/>
<path transform="translate(232,17)" d="m0 0 6 3v12l-1-4-5 1z" fill="#0E5CA0"/>
<path transform="translate(221,50)" d="m0 0h1l1 10v14l-4-2v-10l1-1z" fill="#3FAE5D"/>
<path transform="translate(124,17)" d="m0 0 3 1-2 12-1-3-4-2-2-5z" fill="#1C6BA9"/>
<path transform="translate(225,394)" d="m0 0 7 6 1 2-6 1-1 20h-1z" fill="#4470B1"/>
<path transform="translate(252,48)" d="m0 0h1v40h-1l-1-28h-1v-9z" fill="#595478"/>
<path transform="translate(171,18)" d="m0 0h6l2 3v4h-9v-4z" fill="#3076B0"/>
<path transform="translate(215,140)" d="m0 0 3 1-1 2-19 7-2-1 5-4z" fill="#E9E266"/>
<path transform="translate(252,41)" d="m0 0 4 1-4 8-7 8h-2l2-5 5-8z" fill="#F9F6F2"/>
<path transform="translate(1440,397)" d="m0 0h9l-1 6-8 1z" fill="#4E78B3"/>
<path transform="translate(619,395)" d="m0 0 4 1 6 6-1 2-8 1z" fill="#4C77B3"/>
<path transform="translate(129,15)" d="m0 0h6l-1 12-3-3-2 1z" fill="#1668A8"/>
<path transform="translate(293,397)" d="m0 0h9v13h-1l-1-8h-6z" fill="#4C77B3"/>
<path transform="translate(1267,394)" d="m0 0 5 3 3 3v2l-6 1-2 4z" fill="#517CB4"/>
<path transform="translate(37,107)" d="m0 0 3 4v6l-3 5-2-1v-8z" fill="#F6E0B2"/>
<path transform="translate(219,13)" d="m0 0 3 1 1 1v9l-5 1v-8z" fill="#375D9B"/>
<path transform="translate(1371,394)" d="m0 0 5 3 5 6-9 1z" fill="#4D77B3"/>
<path transform="translate(116,40)" d="m0 0 3 1 1 2v8l-4 2z" fill="#C6A58C"/>
<path transform="translate(20,236)" d="m0 0 3 1 2 6-6 2-1-7z" fill="#3CAF59"/>
<path transform="translate(128,116)" d="m0 0h1l1 18h-2l-1 3-1-3v-14z" fill="#A8D15B"/>
<path transform="translate(117,22)" d="m0 0h2v14l-3-1v-12z" fill="#E0AD82"/>
<path transform="translate(142,32)" d="m0 0h3l2 7-4 1-3-2z" fill="#3474B1"/>
<path transform="translate(231,17)" d="m0 0h1l1 13-3 3-1-2v-10h2z" fill="#7D9CBB"/>
<path transform="translate(263,278)" d="m0 0 2 1 3 8-3 3v-5h-3l-2-5z" fill="#EDC193"/>
<path transform="translate(250,27)" d="m0 0h2l1 14-3 4z" fill="#AF4D28"/>
<path transform="translate(166,301)" d="m0 0h3v2h-2l1 7 1 4-4 1v-13z" fill="#EBBC8E"/>
<path transform="translate(335,238)" d="m0 0 5 1-1 5h-5z" fill="#43A855"/>
<path transform="translate(228,16)" d="m0 0 3 1v4h-2l1 13-2 1z" fill="#3C5A98"/>
<path transform="translate(689,87)" d="m0 0 3 1v6h-2v9h-1z" fill="#436FB1"/>
<path transform="translate(229,37)" d="m0 0h1l-1 8-1 4 2 1h-3l-1-7v-3z" fill="#5380AD"/>
<path transform="translate(1766,178)" d="m0 0" fill="#7D9CBB"/>
</svg>
