<?xml version="1.0" encoding="UTF-8"?>
<svg version="1.1" xmlns="http://www.w3.org/2000/svg" width="1866" height="410">
<path d="M0 0 C4.08419549 0.00768872 8.1683725 0.00052755 12.25256896 -0.0041585 C19.09166197 -0.00958156 25.93065702 -0.0025075 32.7697351 0.01186323 C40.6680798 0.02826836 48.56619308 0.02283078 56.46453243 0.00638402 C63.27597757 -0.00722852 70.08735313 -0.00915422 76.89880747 -0.00129998 C80.95477337 0.00336693 85.01063029 0.00402676 89.06658912 -0.00590944 C92.86796688 -0.01457649 96.66904471 -0.0085624 100.47039008 0.00877333 C101.86316214 0.01273595 103.2559595 0.01160793 104.64872146 0.00498533 C106.55089193 -0.00322607 108.45311768 0.00890235 110.35526061 0.02202559 C111.4186758 0.02315666 112.482091 0.02428774 113.57773089 0.02545309 C116.9009129 0.46162657 118.76249893 1.43588499 121.45406127 3.40297651 C125.37385322 8.80281509 124.87132298 14.56941966 124.82637572 20.96596479 C124.83002639 22.12465071 124.83367705 23.28333662 124.83743834 24.47713423 C124.84554433 28.30933494 124.83192105 32.14111247 124.81734252 35.97328901 C124.81682343 38.65207714 124.81729118 41.33084939 124.81885314 44.00963545 C124.81973573 49.6334758 124.80867737 55.25719558 124.79024291 60.88100386 C124.76921996 67.33027617 124.76553474 73.77937017 124.77180487 80.22866976 C124.77756305 86.47675582 124.7717688 92.72478071 124.76063132 98.97285795 C124.75605486 101.60788877 124.75561461 104.24281861 124.75721717 106.87786436 C124.75910362 125.45163966 124.67037448 144.16843096 120.32906127 162.34047651 C120.11660766 163.24322309 119.90415404 164.14596968 119.68526244 165.07607222 C114.05988895 187.79658283 103.75326237 208.91582169 89.45406127 227.40297651 C88.76054564 228.31949995 88.06703002 229.23602339 87.35249877 230.18032026 C60.59858146 264.29907997 20.16559357 287.49628786 -22.91849732 293.00698042 C-39.04566245 294.80824415 -55.15158354 294.62655677 -71.35843873 294.52797651 C-85.80625123 294.46610151 -85.80625123 294.46610151 -100.54593873 294.40297651 C-100.54593873 321.79297651 -100.54593873 349.18297651 -100.54593873 377.40297651 C-127.93593873 377.40297651 -155.32593873 377.40297651 -183.54593873 377.40297651 C-183.54593873 350.01297651 -183.54593873 322.62297651 -183.54593873 294.40297651 C-194.43593873 294.40297651 -205.32593873 294.40297651 -216.54593873 294.40297651 C-216.54593873 266.68297651 -216.54593873 238.96297651 -216.54593873 210.40297651 C-205.65593873 210.40297651 -194.76593873 210.40297651 -183.54593873 210.40297651 C-183.58074342 206.90446089 -183.61554811 203.40594526 -183.65140748 199.80141401 C-183.67494572 196.33250951 -183.69308062 192.86361463 -183.71073365 189.39467573 C-183.72562336 187.02288902 -183.74594179 184.65112882 -183.77225709 182.27944136 C-184.22601052 140.26721207 -175.20932747 99.90103282 -148.54593873 66.40297651 C-147.89673463 65.58458296 -147.89673463 65.58458296 -147.23441529 64.7496562 C-124.42911279 36.31382612 -95.03215811 16.38956769 -59.98343873 6.09047651 C-59.20629518 5.85997602 -58.42915162 5.62947554 -57.62845826 5.39199018 C-54.94841764 4.64929218 -52.25742134 4.02215365 -49.54593873 3.40297651 C-48.45735566 3.14836149 -47.36877259 2.89374647 -46.24720216 2.63141584 C-31.02012221 -0.5596663 -15.47597747 -0.03831951 0 0 Z M-77.54593873 111.40297651 C-97.54694359 134.28038006 -100.93707269 161.1081556 -100.67093873 190.40297651 C-100.66087783 192.35349269 -100.65175754 194.30401396 -100.64359498 196.25453901 C-100.62185322 200.9708136 -100.58749907 205.68683665 -100.54593873 210.40297651 C-92.31281388 210.47300354 -84.07981694 210.52605168 -75.8464663 210.55841303 C-72.0218983 210.57395794 -68.19753653 210.59498702 -64.37308717 210.62929487 C-60.67072152 210.66229335 -56.96855212 210.67991311 -53.26605058 210.68760824 C-51.86530053 210.69308019 -50.46455917 210.70376127 -49.06389451 210.72016668 C-24.06846777 211.00083584 -2.10172828 202.26020745 15.93062377 185.04750776 C29.49096183 170.83644141 40.61650731 150.16829958 40.56758666 130.06191206 C40.56751113 129.02121061 40.5674356 127.98050917 40.56735778 126.90827131 C40.56219649 125.79664122 40.55703521 124.68501112 40.55171752 123.53969526 C40.55030257 122.39257566 40.54888762 121.24545607 40.5474298 120.06357527 C40.54183987 116.40584897 40.52928916 112.74818426 40.51656127 109.09047651 C40.51154497 106.60805552 40.50698229 104.12563357 40.50288939 101.64321089 C40.49187374 95.56311181 40.47514557 89.48304856 40.45406127 83.40297651 C32.55081464 83.30928858 24.64780934 83.23872097 16.74414039 83.19572783 C13.07204907 83.17506788 9.40034428 83.14715974 5.72847533 83.1012187 C-26.59487016 82.70766348 -53.93465755 86.92305288 -77.54593873 111.40297651 Z M-182.54593873 211.40297651 C-182.54593873 238.46297651 -182.54593873 265.52297651 -182.54593873 293.40297651 C-155.81593873 293.40297651 -129.08593873 293.40297651 -101.54593873 293.40297651 C-101.54593873 266.34297651 -101.54593873 239.28297651 -101.54593873 211.40297651 C-128.27593873 211.40297651 -155.00593873 211.40297651 -182.54593873 211.40297651 Z " fill="#35B7E9" transform="translate(234.54593873023987,13.597023487091064)"/>
<path d="M0 0 C9.69239571 -0.06954115 19.3847054 -0.12283212 29.07729626 -0.15543652 C33.57806911 -0.17108579 38.07867115 -0.19231054 42.5793457 -0.22631836 C46.92356862 -0.25893821 51.26762733 -0.27685857 55.61196327 -0.28463173 C57.26855364 -0.29017053 58.92513512 -0.30098652 60.5816555 -0.31719017 C62.90383632 -0.3389997 65.2253405 -0.34196551 67.54760742 -0.34057617 C68.23093643 -0.351362 68.91426544 -0.36214783 69.61830139 -0.3732605 C73.92599546 -0.34541298 76.66971553 0.22135115 80 3 C83.91979195 8.39983858 83.41726171 14.16644315 83.37231445 20.56298828 C83.37596512 21.72167419 83.37961578 22.88036011 83.38337708 24.07415771 C83.39148306 27.90635843 83.37785978 31.73813596 83.36328125 35.5703125 C83.36276216 38.24910063 83.36322991 40.92787288 83.36479187 43.60665894 C83.36567446 49.23049928 83.3546161 54.85421907 83.33618164 60.47802734 C83.31515869 66.92729966 83.31147347 73.37639366 83.3177436 79.82569325 C83.32350178 86.07377931 83.31770753 92.32180419 83.30657005 98.56988144 C83.30199359 101.20491226 83.30155334 103.8398421 83.3031559 106.47488785 C83.30504235 125.04866314 83.21631321 143.76545444 78.875 161.9375 C78.66254639 162.84024658 78.45009277 163.74299316 78.23120117 164.6730957 C72.60582768 187.39360631 62.2992011 208.51284518 48 227 C47.30648437 227.91652344 46.61296875 228.83304688 45.8984375 229.77734375 C18.7551369 264.39267654 -22.14785067 287.40533907 -65.82352257 292.78329563 C-69.12038192 293.11155257 -72.38943585 293.11919617 -75.70117188 293.11352539 C-76.43563789 293.11364593 -77.17010391 293.11376646 -77.92682648 293.11389065 C-80.27416653 293.11315188 -82.6214244 293.10557157 -84.96875 293.09765625 C-86.43001263 293.09618361 -87.8912758 293.09516489 -89.35253906 293.09460449 C-94.73503415 293.0893889 -100.11751791 293.07542766 -105.5 293.0625 C-117.545 293.041875 -129.59 293.02125 -142 293 C-142 265.94 -142 238.88 -142 211 C-111.5 210.75 -111.5 210.75 -101.97460938 210.70214844 C-82.17126381 210.57117517 -82.17126381 210.57117517 -63 206 C-62.35382217 205.77650879 -61.70764435 205.55301758 -61.04188538 205.32275391 C-37.99236651 197.33542581 -20.49970364 182.01588807 -9.68066406 160.08398438 C-6.63032187 153.58529408 -4.72651686 146.96589722 -3 140 C-2.66030182 139.04753891 -2.32060364 138.09507782 -1.97061157 137.11375427 C-0.38111544 131.53185714 -0.6913584 125.7531947 -0.68115234 119.99633789 C-0.67110672 118.69809082 -0.6610611 117.39984375 -0.65071106 116.06225586 C-0.62351655 112.51940733 -0.60829315 108.97659834 -0.59528303 105.43367314 C-0.57960608 101.72473342 -0.55283051 98.01587386 -0.5272522 94.30699158 C-0.48054497 87.29135184 -0.443762 80.27569689 -0.41057932 73.25998157 C-0.37230086 65.26959514 -0.32290577 57.27928939 -0.27259517 49.28897107 C-0.1693952 32.85937207 -0.08009617 16.42972822 0 0 Z " fill="#0676BC" transform="translate(276,14)"/>
<path d="M0 0 C1.5685474 0.0008486 3.13709599 0.0003666 4.7056427 -0.00132751 C8.9175967 -0.00217982 13.12928856 0.01532029 17.34118223 0.03639436 C21.76004384 0.05529034 26.17891305 0.05692169 30.59780884 0.06047058 C38.94494335 0.06975341 47.29195841 0.09431563 55.63904059 0.12451905 C65.15065468 0.15818097 74.66227481 0.17457857 84.17393374 0.18960536 C103.72101754 0.22086905 123.26793784 0.2758334 142.81494141 0.34057617 C142.81494141 13.21057617 142.81494141 26.08057617 142.81494141 39.34057617 C138.06007324 39.35515869 133.30520508 39.36974121 128.40625 39.38476562 C112.71206368 39.4350586 97.01797654 39.50149361 81.32388878 39.57629108 C71.80675743 39.62125395 62.28966354 39.6606675 52.77246094 39.68701172 C44.47712956 39.70998781 36.18191669 39.7433815 27.88667929 39.78927773 C23.49452749 39.8132152 19.1024931 39.83194054 14.71027756 39.83819008 C10.57505302 39.84423857 6.44012889 39.8642298 2.30501556 39.89485168 C0.78852805 39.9036357 -0.72799872 39.90735373 -2.24451065 39.90558434 C-4.31843332 39.90392878 -6.39144322 39.92065303 -8.46524048 39.94184875 C-9.62485605 39.94645772 -10.78447163 39.95106668 -11.97922707 39.95581532 C-15.6110426 40.39170237 -18.00643943 41.57459254 -21.18505859 43.34057617 C-22.17505859 43.67057617 -23.16505859 44.00057617 -24.18505859 44.34057617 C-30.5891124 54.8884295 -28.62480279 63.89443699 -29.18505859 77.34057617 C15.36494141 77.34057617 59.91494141 77.34057617 105.81494141 77.34057617 C105.81494141 89.88057617 105.81494141 102.42057617 105.81494141 115.34057617 C61.26494141 115.34057617 16.71494141 115.34057617 -29.18505859 115.34057617 C-32.03699559 154.69224036 -32.03699559 154.69224036 -23.18505859 167.34057617 C-17.66689806 171.7325815 -13.68984839 172.45992221 -6.78167725 172.49879456 C-5.46357056 172.50858337 -4.14546387 172.51837219 -2.78741455 172.52845764 C-1.32849157 172.5343615 0.13043178 172.54017197 1.58935547 172.54589844 C3.12687441 172.55547946 4.66439073 172.56548968 6.2019043 172.57589722 C10.37507128 172.60292802 14.54824955 172.62394747 18.72145557 172.6438992 C23.08302173 172.66577 27.44455317 172.69315334 31.80609131 172.71995544 C40.06494267 172.76986753 48.32381332 172.81481187 56.5827024 172.85797781 C65.98529939 172.90736286 75.38786154 172.96227629 84.79042482 173.0176574 C104.13189945 173.13145467 123.4734061 173.23756882 142.81494141 173.34057617 C142.81494141 185.88057617 142.81494141 198.42057617 142.81494141 211.34057617 C121.65651171 211.43102803 100.49823966 211.50464621 79.33966541 211.54782486 C69.51437752 211.56841036 59.6892187 211.5964539 49.86401367 211.64233398 C41.29584035 211.68232497 32.72776055 211.70803811 24.15949649 211.71693015 C19.62673431 211.72212422 15.09423957 211.73424763 10.56156349 211.7634964 C6.2860031 211.79085975 2.01081764 211.79897941 -2.26482201 211.7930069 C-3.82517542 211.79409786 -5.38554276 211.80192635 -6.94581985 211.81739807 C-24.93917084 211.98690948 -38.70914519 207.11886464 -51.86474609 194.74682617 C-60.57279438 185.71625758 -67.26791647 173.25324565 -67.33222961 160.46730042 C-67.33938492 159.48771866 -67.34654022 158.5081369 -67.35391235 157.49887085 C-67.35660126 156.43028839 -67.35929016 155.36170593 -67.36206055 154.26074219 C-67.37191734 152.56480675 -67.37191734 152.56480675 -67.38197327 150.83460999 C-67.40170281 147.08790011 -67.41337073 143.34123039 -67.42333984 139.59448242 C-67.42741537 138.31253431 -67.4314909 137.0305862 -67.43568993 135.70979118 C-67.4544026 129.6191713 -67.46896515 123.52857145 -67.4773019 117.43792874 C-67.48704658 110.43614269 -67.51329436 103.43467511 -67.55380279 96.4330011 C-67.58778753 90.34722091 -67.59946238 84.26157281 -67.60350609 78.17570305 C-67.6083591 75.59908839 -67.61993607 73.0224768 -67.63854408 70.44592476 C-67.81427368 44.49171728 -67.81427368 44.49171728 -63.18505859 34.34057617 C-62.80678421 33.50559097 -62.42850983 32.67060577 -62.03877258 31.81031799 C-58.94914441 25.40906409 -54.12655122 20.3680078 -49.18505859 15.34057617 C-48.61916016 14.76178711 -48.05326172 14.18299805 -47.47021484 13.58666992 C-34.44452457 1.38901864 -16.98041945 -0.13072137 0 0 Z " fill="#0877BD" transform="translate(728.18505859375,95.659423828125)"/>
<path d="M0 0 C147.82132594 0 147.82132594 0 181.1875 31.75 C200.77879246 52.13510496 210.45249774 78.00918532 211.25 106.0625 C210.58564778 130.56048815 203.04841205 154.24070754 187 173 C186.195625 173.95390625 185.39125 174.9078125 184.5625 175.890625 C167.79956294 195.06323426 144.31428857 207.69027531 119 211 C115.1314525 211.14144701 111.26575266 211.1262648 107.39501953 211.11352539 C106.21474623 211.11364593 105.03447292 211.11376646 103.81843376 211.11389065 C100.00654069 211.11314562 96.1946968 211.105536 92.3828125 211.09765625 C90.02596053 211.09618556 87.66910823 211.09516563 85.31225586 211.09460449 C76.58316558 211.0893663 67.85408231 211.07540507 59.125 211.0625 C39.61375 211.041875 20.1025 211.02125 0 211 C0 141.37 0 71.74 0 0 Z M38 39 C38 83.22 38 127.44 38 173 C50.230625 173.0825 62.46125 173.165 75.0625 173.25 C78.89367432 173.28641602 82.72484863 173.32283203 86.67211914 173.36035156 C90.17124991 173.37374689 90.17124991 173.37374689 93.6703949 173.3817749 C95.20311662 173.38783123 96.73582193 173.40171572 98.26841736 173.42230225 C119.70247919 173.6952794 137.69541367 167.95446564 153.375 152.6875 C166.71178132 138.62981158 172.62565864 121.79964465 172.26953125 102.61328125 C171.4717514 83.83205023 162.58142779 67.62767584 149 55 C132.97279923 41.45802973 114.68157536 38.49809041 94.4453125 38.70703125 C92.99015653 38.71145746 91.53499572 38.7145085 90.07983398 38.71618652 C84.76148182 38.73173726 79.44323277 38.77361967 74.125 38.8125 C62.20375 38.874375 50.2825 38.93625 38 39 Z " fill="#0877BD" transform="translate(1405,96)"/>
<path d="M0 0 C13.0042728 0 26.03403147 0.00261781 39 1 C39 70.63 39 140.26 39 212 C35.05171658 209.63102995 31.61354564 207.25154867 28 204.4375 C26.8438055 203.54029306 25.68755389 202.6431597 24.53125 201.74609375 C23.65146484 201.06135986 23.65146484 201.06135986 22.75390625 200.36279297 C20.01070571 198.23131393 17.25507036 196.11609824 14.5 194 C13.41660003 193.1667533 12.33326686 192.33341974 11.25 191.5 C10.71375 191.0875 10.1775 190.675 9.625 190.25 C-0.66666667 182.33333333 -10.95833333 174.41666667 -21.25 166.5 C-21.78584717 166.08782227 -22.32169434 165.67564453 -22.8737793 165.25097656 C-23.96123001 164.4144509 -25.04863207 163.57786197 -26.13598633 162.74121094 C-28.78093787 160.70620712 -31.42681112 158.67243467 -34.07421875 156.640625 C-40.31787468 151.8462493 -46.54041426 147.02593188 -52.75 142.1875 C-59.34035621 137.05309615 -65.96122265 131.96094937 -72.60449219 126.89526367 C-77.75966595 122.95983021 -82.8852845 118.98783759 -88 115 C-95.30445627 109.30550874 -102.6475874 103.66390818 -110.01171875 98.046875 C-112.58254003 96.08543817 -115.14802205 94.11744757 -117.70703125 92.140625 C-118.28670654 91.69299805 -118.86638184 91.24537109 -119.46362305 90.78417969 C-120.99993458 89.5966707 -122.53517144 88.40777172 -124.0703125 87.21875 C-127.33249016 84.74819412 -130.67010465 82.37849668 -134 80 C-134 123.56 -134 167.12 -134 212 C-146.54 212 -159.08 212 -172 212 C-172 142.37 -172 72.74 -172 1 C-168.85637439 2.88617537 -166.10339199 4.58452341 -163.25 6.78515625 C-162.56583008 7.31069092 -161.88166016 7.83622559 -161.17675781 8.37768555 C-160.0992627 9.2116687 -160.0992627 9.2116687 -159 10.0625 C-158.2481543 10.64104736 -157.49630859 11.21959473 -156.72167969 11.81567383 C-155.19574979 12.99025108 -153.67067557 14.16594084 -152.14648438 15.34277344 C-150.25059286 16.80652589 -148.35263099 18.26750583 -146.453125 19.7265625 C-144.33094676 21.35667839 -142.21002282 22.98837242 -140.08984375 24.62109375 C-138.04152258 26.19811979 -135.99205545 27.77365859 -133.94140625 29.34765625 C-127.69231542 34.14564734 -121.46472221 38.97006585 -115.25 43.8125 C-108.65964379 48.94690385 -102.03877735 54.03905063 -95.39550781 59.10473633 C-90.24033405 63.04016979 -85.1147155 67.01216241 -80 71 C-72.00955436 77.22928267 -63.96937641 83.39127433 -55.91503906 89.53759766 C-47.22517067 96.17353744 -38.58709171 102.87470848 -29.96240234 109.5949707 C-23.85874624 114.34520741 -17.72323377 119.05261393 -11.56933594 123.73754883 C-10.91094727 124.23923584 -10.25255859 124.74092285 -9.57421875 125.2578125 C-9.00276123 125.6923877 -8.43130371 126.12696289 -7.8425293 126.57470703 C-5.54018843 128.35568834 -3.27294103 130.18164718 -1 132 C-0.505 66.66 -0.505 66.66 0 0 Z " fill="#0A78BD" transform="translate(1337,96)"/>
<path d="M0 0 C33.78375 -0.0928125 33.78375 -0.0928125 68.25 -0.1875 C75.34532227 -0.21481201 82.44064453 -0.24212402 89.75097656 -0.27026367 C98.45654297 -0.28381348 98.45654297 -0.28381348 102.53997803 -0.28633118 C105.37452326 -0.28911115 108.20889765 -0.3002932 111.043396 -0.31672668 C114.67210488 -0.33748225 118.30056952 -0.34344095 121.92933226 -0.33921683 C123.87177597 -0.34051092 125.81419341 -0.35650837 127.75656509 -0.37328625 C143.92855044 -0.31642132 156.85979502 4.33283236 168.65234375 15.52734375 C185.11561305 32.86719311 190.60390968 55.24957209 190.27734375 78.5546875 C189.67713485 95.62928704 182.92309955 110.80327093 170.5546875 122.60693359 C158.82414665 133.11799925 146.69572676 138.17356186 131.0690918 138.11352539 C130.07349747 138.11367142 129.07790314 138.11381744 128.05213928 138.1139679 C124.76781012 138.11327232 121.48353798 138.10549652 118.19921875 138.09765625 C115.91950003 138.09579081 113.63978091 138.0943675 111.36006165 138.09336853 C105.36448049 138.08955329 99.36892362 138.07973146 93.37335205 138.06866455 C86.17716728 138.056629 78.98097437 138.05204346 71.78478241 138.04621124 C60.85650472 138.0365192 49.92828031 138.01735566 39 138 C39 162.42 39 186.84 39 212 C26.13 212 13.26 212 0 212 C0 142.04 0 72.08 0 0 Z M39 41 C39 59.81 39 78.62 39 98 C56.22259743 98.17459001 56.22259743 98.17459001 73.4453125 98.29296875 C80.47260811 98.32880098 87.4994335 98.37113594 94.52636719 98.45263672 C100.19334558 98.51795104 105.85981957 98.55373214 111.52714539 98.56926346 C113.68649737 98.58032798 115.84582254 98.60193489 118.00495911 98.63438034 C121.03580824 98.6781032 124.06458807 98.68392736 127.09570312 98.68115234 C127.98331329 98.702724 128.87092346 98.72429565 129.78543091 98.746521 C136.39002863 98.68132755 140.27597298 96.58599157 145 92 C150.593622 84.27547439 152.94724285 74.42802653 152 65 C150.57940533 56.59851431 148.49369051 48.39766843 141.4375 43.0625 C137.866182 41.50577164 134.76303893 40.87465571 130.87445068 40.87974548 C129.65456451 40.87768349 129.65456451 40.87768349 128.41003418 40.87557983 C127.08509949 40.88097275 127.08509949 40.88097275 125.73339844 40.88647461 C124.79647156 40.88632858 123.85954468 40.88618256 122.89422607 40.8860321 C119.79925212 40.88672843 116.70433844 40.89450777 113.609375 40.90234375 C111.46274854 40.90420892 109.31612166 40.90563236 107.16949463 40.90663147 C101.52078068 40.91044882 95.87209246 40.92027246 90.22338867 40.93133545 C83.44522636 40.94336529 76.66705544 40.94795554 69.8888855 40.95378876 C59.59257244 40.9634846 49.29631583 40.98264666 39 41 Z " fill="#0A78BD" transform="translate(447,96)"/>
<path d="M0 0 C19.38840884 16.96854655 33.77313589 40.77747961 36.37890625 66.80859375 C37.13093764 82.45933513 37.25841084 97.79991066 32.37890625 112.80859375 C32.06542236 113.77877441 32.06542236 113.77877441 31.74560547 114.76855469 C22.71521365 141.6229783 3.40085593 162.85628084 -21.62109375 175.80859375 C-26.4870633 178.20671091 -31.4651352 180.14260515 -36.62109375 181.80859375 C-37.26788086 182.01887207 -37.91466797 182.22915039 -38.58105469 182.44580078 C-66.07170549 190.91839521 -95.9079027 186.32410066 -120.984375 173.09350586 C-144.24219963 160.25593442 -161.45651211 138.12322414 -169.87109375 113.08984375 C-177.90708882 84.96386101 -175.80867633 55.51758637 -161.83984375 29.65234375 C-147.60168912 4.46955781 -124.84430047 -13.81353416 -96.91381836 -21.66967773 C-62.66516 -30.62955728 -27.13381236 -22.6856464 0 0 Z M-120.66796875 38.01953125 C-132.27439853 51.83426404 -136.94349787 68.85699963 -135.82373047 86.65771484 C-134.18164276 104.0875856 -125.90037758 120.37458054 -112.62109375 131.80859375 C-98.30290929 143.13182069 -80.94207284 149.25439235 -62.62109375 147.80859375 C-48.96947984 145.82965085 -37.50621227 141.25788156 -26.62109375 132.80859375 C-26.0075 132.36 -25.39390625 131.91140625 -24.76171875 131.44921875 C-11.19280226 120.86795359 -4.32028832 104.36446432 -1.62109375 87.80859375 C0.1054721 69.90986115 -5.4428218 53.22554422 -15.99609375 38.87109375 C-27.44503355 25.3029371 -41.98938792 16.56111336 -59.62109375 13.80859375 C-84.73115854 12.52343295 -103.61444854 19.59912583 -120.66796875 38.01953125 Z " fill="#0A78BD" transform="translate(1811.62109375,121.19140625)"/>
<path d="M0 0 C12.87 0 25.74 0 39 0 C39.00410889 4.49157715 39.00821777 8.9831543 39.01245117 13.61083984 C39.02965633 28.45885011 39.07391987 43.30668891 39.13209057 58.15459251 C39.16669662 67.15598619 39.19209033 76.15722742 39.19555664 85.15869141 C39.19860265 93.00731044 39.21917846 100.85565767 39.26052457 108.70417178 C39.28179873 112.85732851 39.29448412 117.01009938 39.28615379 121.163311 C39.27857796 125.07875028 39.29457799 128.99341001 39.32806015 132.90870667 C39.33625121 134.3396589 39.33609348 135.77068928 39.32659721 137.20163345 C39.26509927 147.49383304 40.69104094 154.91763803 47.4375 162.875 C55.79205011 169.8031635 62.38081084 171.29656242 72.96240234 171.31884766 C74.05567841 171.32889328 75.14895447 171.3389389 76.27536011 171.34928894 C79.8788807 171.38011027 83.48232702 171.39715343 87.0859375 171.4140625 C89.58843626 171.43277496 92.09092873 171.45234843 94.59341431 171.4727478 C100.50056545 171.51882496 106.40773097 171.5562362 112.31496489 171.58942068 C119.70353293 171.63146009 127.0919892 171.68700526 134.48046875 171.7421875 C147.653592 171.83894393 160.82675038 171.92232828 174 172 C174 184.87 174 197.74 174 211 C159.80373435 211.06802319 145.60757857 211.12295835 131.41118622 211.15543652 C124.81784465 211.17103153 118.22462124 211.19215632 111.63134766 211.22631836 C105.25763299 211.25913269 98.88403133 211.27689926 92.51023865 211.28463173 C90.08961714 211.29013584 87.66900118 211.30088295 85.24842834 211.31719017 C62.92954469 211.46144627 43.26925572 210.26800956 25 196 C24.31292969 195.48953125 23.62585938 194.9790625 22.91796875 194.453125 C9.00336693 183.3653555 2.08430896 166.21201106 0 149 C-0.25973276 143.9856993 -0.25445625 138.9793265 -0.22705078 133.95996094 C-0.22648523 132.49022937 -0.22680602 131.02049724 -0.22793579 129.55076599 C-0.22850471 125.59907253 -0.21682591 121.6475029 -0.20278788 117.69583797 C-0.19020286 113.55189088 -0.18910394 109.4079403 -0.18673706 105.26397705 C-0.18054497 97.43387923 -0.16416519 89.6038379 -0.14403808 81.77376485 C-0.12160801 72.85226162 -0.11066785 63.93075555 -0.10064721 55.00923109 C-0.0797967 36.67278228 -0.04314918 18.33641083 0 0 Z " fill="#0B79BD" transform="translate(894,97)"/>
<path d="M0 0 C12.87 0 25.74 0 39 0 C39 69.63 39 139.26 39 211 C26.13 211 13.26 211 0 211 C0 141.37 0 71.74 0 0 Z " fill="#0C79BE" transform="translate(1097,96)"/>
<path d="M0 0 C11.22 0 22.44 0 34 0 C34 27.06 34 54.12 34 82 C22.78 82 11.56 82 0 82 C0 54.94 0 27.88 0 0 Z " fill="#1076B9" transform="translate(18,225)"/>
</svg>
