<?xml version="1.0" encoding="UTF-8"?>
<svg version="1.1" xmlns="http://www.w3.org/2000/svg" width="200" height="75">
<path d="M0 0 C3.3 -0.061875 6.6 -0.12375 10 -0.1875 C11.53527344 -0.22846802 11.53527344 -0.22846802 13.1015625 -0.27026367 C19.68293083 -0.32948071 25.68531933 0.21994525 30.9375 4.625 C32.83885395 8.87508529 33.65268964 13.42940697 32.4921875 18 C31.11275609 21.3687167 29.20842999 24.14020724 27 27 C27.5053125 27.68707031 28.010625 28.37414062 28.53125 29.08203125 C29.1809375 29.98308594 29.830625 30.88414063 30.5 31.8125 C31.1496875 32.70582031 31.799375 33.59914062 32.46875 34.51953125 C34 37 34 37 34 40 C30.13791953 40.70284185 26.83402152 40.94080211 23 40 C20.44044043 37.35483643 18.69526977 34.68369213 16.8515625 31.50390625 C15.00365814 28.41848113 15.00365814 28.41848113 10 28 C10 31.96 10 35.92 10 40 C6.7 40 3.4 40 0 40 C0 26.8 0 13.6 0 0 Z M10 9 C10 12.3 10 15.6 10 19 C11.588125 19.0825 13.17625 19.165 14.8125 19.25 C16.15248047 19.31960937 16.15248047 19.31960937 17.51953125 19.390625 C20.13384716 19.2293359 20.13384716 19.2293359 21.8359375 17.15234375 C23.24198375 15.01189374 23.24198375 15.01189374 22.8125 12.3125 C22.24184848 9.83108618 22.24184848 9.83108618 20 9 C18.29297265 8.93003986 16.58331997 8.91559846 14.875 8.9375 C13.26625 8.958125 11.6575 8.97875 10 9 Z " fill="#EC2024" transform="translate(45,4)"/>
<path d="M0 0 C1.47906892 -0.02689216 2.95827483 -0.04634621 4.4375 -0.0625 C5.26121094 -0.07410156 6.08492188 -0.08570313 6.93359375 -0.09765625 C9 0 9 0 10 1 C10.15714654 2.63256758 10.25085414 4.27135338 10.31640625 5.91015625 C10.37924805 7.39418945 10.37924805 7.39418945 10.44335938 8.90820312 C10.48267578 9.94912109 10.52199219 10.99003906 10.5625 12.0625 C10.60568359 13.10728516 10.64886719 14.15207031 10.69335938 15.22851562 C10.79981225 17.81886884 10.9018276 20.40932186 11 23 C11.33 22.67 11.66 22.34 12 22 C14.9375 21.8125 14.9375 21.8125 18 22 C18.66 22.66 19.32 23.32 20 24 C20.66 23.34 21.32 22.68 22 22 C24.5625 21.8125 24.5625 21.8125 27 22 C27.33 22.33 27.66 22.66 28 23 C28.02505615 22.3387915 28.0501123 21.67758301 28.07592773 20.99633789 C28.19153102 18.01817695 28.31441754 15.0403608 28.4375 12.0625 C28.47681641 11.02158203 28.51613281 9.98066406 28.55664062 8.90820312 C28.59853516 7.91884766 28.64042969 6.92949219 28.68359375 5.91015625 C28.72025146 4.99371338 28.75690918 4.07727051 28.79467773 3.13305664 C29 1 29 1 30 0 C31.51928038 -0.07179964 33.04167482 -0.08392007 34.5625 -0.0625 C35.38878906 -0.05347656 36.21507812 -0.04445312 37.06640625 -0.03515625 C37.70449219 -0.02355469 38.34257813 -0.01195312 39 0 C39.07407906 4.23580253 39.12856696 8.47126341 39.16479492 12.70751953 C39.17989483 14.14899258 39.20037658 15.59041959 39.22631836 17.03173828 C39.2626513 19.10200343 39.27971329 21.17166207 39.29296875 23.2421875 C39.3086792 24.4885498 39.32438965 25.73491211 39.34057617 27.01904297 C39.17199097 28.4946167 39.17199097 28.4946167 39 30 C36 32 36 32 33.5 32.125 C30.88036024 32.72609182 30.88036024 32.72609182 30.01171875 34.83984375 C29.25614905 36.87737531 28.58617764 38.90787006 28 41 C24.66666667 41 21.33333333 41 18 41 C16.989375 41.04125 15.97875 41.0825 14.9375 41.125 C12 41 12 41 10 39 C9.773125 38.030625 9.54625 37.06125 9.3125 36.0625 C8.2325212 32.63949803 8.2325212 32.63949803 4.4375 31.1875 C3.303125 30.795625 2.16875 30.40375 1 30 C0 29 0 29 -0.11352539 26.22436523 C-0.10828857 25.01466064 -0.10305176 23.80495605 -0.09765625 22.55859375 C-0.09443359 21.25341797 -0.09121094 19.94824219 -0.08789062 18.60351562 C-0.07953401 17.2148431 -0.07106905 15.82617123 -0.0625 14.4375 C-0.05748666 13.04492344 -0.05292347 11.65234519 -0.04882812 10.25976562 C-0.03699434 6.8398013 -0.0205088 3.41992156 0 0 Z " fill="#EB1F23" transform="translate(83,4)"/>
<path d="M0 0 C0.928125 0.639375 1.85625 1.27875 2.8125 1.9375 C1.73848892 4.85267292 1.03439824 6.71560176 -1.1875 8.9375 C-3.3125 8.625 -3.3125 8.625 -6.1875 7.9375 C-11.16786496 7.19545911 -11.16786496 7.19545911 -16.1875 6.9375 C-16.13121008 8.90518997 -16.13121008 8.90518997 -15.1875 10.9375 C-12.61411806 12.12772486 -12.61411806 12.12772486 -9.5 12.875 C-4.1921663 14.51790091 -0.74826427 15.60684075 2.8125 19.9375 C4.25379363 24.41048024 4.16908675 27.86773974 2.6875 32.3125 C-0.33902676 36.54963746 -2.88111791 37.65445055 -7.9375 38.75 C-13.88836127 39.28894593 -19.59983657 38.12836199 -24.75 35.0625 C-25.9565625 34.010625 -25.9565625 34.010625 -27.1875 32.9375 C-27.1875 28.66923127 -26.81136487 27.99867568 -24.1875 24.9375 C-21.03474603 25.41519 -18.62683134 26.18779851 -15.6875 27.5 C-12.45310853 28.82841078 -10.60657614 29.2483251 -7.1875 28.9375 C-7.1875 27.2875 -7.1875 25.6375 -7.1875 23.9375 C-7.98414063 23.76734375 -8.78078125 23.5971875 -9.6015625 23.421875 C-23.00291871 20.35684463 -23.00291871 20.35684463 -26.625 14.6875 C-27.40352188 10.88139302 -27.34836034 7.66129876 -26.1875 3.9375 C-19.82708843 -4.42189807 -8.86289802 -5.06193972 0 0 Z " fill="#EC2024" transform="translate(155.1875,6.0625)"/>
<path d="M0 0 C4.39656173 -0.02465504 8.7930872 -0.04283842 13.18969727 -0.05493164 C14.68644918 -0.05997121 16.18319616 -0.06680287 17.67993164 -0.07543945 C19.82699807 -0.08752159 21.97399962 -0.09323191 24.12109375 -0.09765625 C26.06133423 -0.10551147 26.06133423 -0.10551147 28.04077148 -0.11352539 C31 0 31 0 32 1 C32.125 4.5 32.125 4.5 32 8 C31 9 31 9 28.71484375 9.09765625 C27.34005859 9.08025391 27.34005859 9.08025391 25.9375 9.0625 C25.01839844 9.05347656 24.09929687 9.04445313 23.15234375 9.03515625 C22.44207031 9.02355469 21.73179687 9.01195312 21 9 C21.00785522 10.35532837 21.00785522 10.35532837 21.01586914 11.73803711 C21.03287686 15.07951489 21.04543333 18.42094692 21.05493164 21.76245117 C21.05997101 23.21070073 21.06680253 24.65894517 21.07543945 26.10717773 C21.08752247 28.18474588 21.09323211 30.26224697 21.09765625 32.33984375 C21.10551147 34.21724243 21.10551147 34.21724243 21.11352539 36.13256836 C21 39 21 39 20 40 C17.03 40 14.06 40 11 40 C11 29.77 11 19.54 11 9 C7.37 9 3.74 9 0 9 C0 6.03 0 3.06 0 0 Z " fill="#EC2024" transform="translate(159,4)"/>
<path d="M0 0 C10.23 0 20.46 0 31 0 C31 2.97 31 5.94 31 9 C27.7 9 24.4 9 21 9 C21.00785522 10.35532837 21.00785522 10.35532837 21.01586914 11.73803711 C21.03287686 15.07951489 21.04543333 18.42094692 21.05493164 21.76245117 C21.05997101 23.21070073 21.06680253 24.65894517 21.07543945 26.10717773 C21.08752247 28.18474588 21.09323211 30.26224697 21.09765625 32.33984375 C21.10551147 34.21724243 21.10551147 34.21724243 21.11352539 36.13256836 C21 39 21 39 20 40 C17.03 40 14.06 40 11 40 C11 29.77 11 19.54 11 9 C7.37 9 3.74 9 0 9 C0 6.03 0 3.06 0 0 Z " fill="#EC2024" transform="translate(11,4)"/>
<path d="M0 0 C1.23556641 0.01740234 1.23556641 0.01740234 2.49609375 0.03515625 C3.32238281 0.04417969 4.14867188 0.05320313 5 0.0625 C5.63808594 0.07410156 6.27617188 0.08570313 6.93359375 0.09765625 C7.00767281 4.33345878 7.06216071 8.56891966 7.09838867 12.80517578 C7.11348858 14.24664883 7.13397033 15.68807584 7.15991211 17.12939453 C7.19624505 19.19965968 7.21330704 21.26931832 7.2265625 23.33984375 C7.24227295 24.58620605 7.2579834 25.83256836 7.27416992 27.11669922 C7.16177979 28.10041504 7.04938965 29.08413086 6.93359375 30.09765625 C3.93359375 32.09765625 3.93359375 32.09765625 1.43359375 32.22265625 C-1.18604601 32.82374807 -1.18604601 32.82374807 -2.0546875 34.9375 C-2.8102572 36.97503156 -3.48022861 39.00552631 -4.06640625 41.09765625 C-6.399354 41.14007348 -8.73343192 41.13858562 -11.06640625 41.09765625 C-12.06640625 40.09765625 -12.06640625 40.09765625 -12.12890625 36.53515625 C-12.10828125 35.40078125 -12.08765625 34.26640625 -12.06640625 33.09765625 C-9.42640625 32.10765625 -6.78640625 31.11765625 -4.06640625 30.09765625 C-4.0413501 29.22439697 -4.01629395 28.3511377 -3.99047852 27.45141602 C-3.89552916 24.22163073 -3.79628596 20.99201471 -3.6940918 17.76245117 C-3.65069191 16.36276426 -3.60902061 14.96302266 -3.5690918 13.56323242 C-3.5115118 11.5550413 -3.44726625 9.54704476 -3.3828125 7.5390625 C-3.34615479 6.32935791 -3.30949707 5.11965332 -3.27172852 3.87329102 C-2.99568181 0.14157286 -2.99568181 0.14157286 0 0 Z " fill="#000000" transform="translate(115.06640625,3.90234375)"/>
<path d="M0 0 C0.99 0 1.98 0 3 0 C3.66 0.66 4.32 1.32 5 2 C5.66 2.33 6.32 2.66 7 3 C7.33 2.01 7.66 1.02 8 0 C8.495 1.485 8.495 1.485 9 3 C12.96 3 16.92 3 21 3 C21 6.76687864 20.76462683 7.91190305 19 11 C17.68 10.67 16.36 10.34 15 10 C15 9.34 15 8.68 15 8 C14.1234375 8.0721875 13.246875 8.144375 12.34375 8.21875 C3.6026426 8.85834322 -5.1101697 9.13504739 -13.875 9.1875 C-14.93912109 9.20039062 -16.00324219 9.21328125 -17.09960938 9.2265625 C-18.09541016 9.22785156 -19.09121094 9.22914062 -20.1171875 9.23046875 C-21.01034668 9.23457764 -21.90350586 9.23868652 -22.82373047 9.24291992 C-25 9 -25 9 -27 7 C-27.1875 4.4375 -27.1875 4.4375 -27 2 C-26 1 -26 1 -23.4375 0.9375 C-22.2309375 0.9684375 -22.2309375 0.9684375 -21 1 C-20.67 1.66 -20.34 2.32 -20 3 C-13.4 3 -6.8 3 0 3 C0 2.01 0 1.02 0 0 Z M-24 3 C-24.33 3.66 -24.66 4.32 -25 5 C-24.67 5.66 -24.34 6.32 -24 7 C-23.01 6.67 -22.02 6.34 -21 6 C-21 5.34 -21 4.68 -21 4 C-21.99 3.67 -22.98 3.34 -24 3 Z M-13 4 C-12 7 -12 7 -12 7 Z M5 4 C5 4.99 5 5.98 5 7 C5.66 7 6.32 7 7 7 C7 6.01 7 5.02 7 4 C6.34 4 5.68 4 5 4 Z M9 4 C10 7 10 7 10 7 Z M12 4 C13 7 13 7 13 7 Z M-19 5 C-18 7 -18 7 -18 7 Z M-3 5 C-2 7 -2 7 -2 7 Z " fill="#000000" transform="translate(130,63)"/>
<path d="M0 0 C0.99 0 1.98 0 3 0 C3 0.99 3 1.98 3 3 C3.99 3 4.98 3 6 3 C6 4.65 6 6.3 6 8 C1.545 8.495 1.545 8.495 -3 9 C-3.33 7.68 -3.66 6.36 -4 5 C-4.66 5 -5.32 5 -6 5 C-5.67 5.99 -5.34 6.98 -5 8 C-14.84618653 9.17316265 -24.16260779 9.26934093 -34 8 C-34 5.69 -34 3.38 -34 1 C-30.84197921 0.84961806 -28.45980901 0.81607639 -25.5 2 C-20.52352556 3.42184984 -15.77070085 3.21131498 -10.625 3.125 C-9.60277344 3.11597656 -8.58054687 3.10695313 -7.52734375 3.09765625 C-5.01798478 3.0742043 -2.50911664 3.04138355 0 3 C0 2.01 0 1.02 0 0 Z M-9 4 C-8 7 -8 7 -8 7 Z M-2 5 C-1 7 -1 7 -1 7 Z M3 5 C4 7 4 7 4 7 Z " fill="#000000" transform="translate(84,63)"/>
<path d="M0 0 C2.475 0.495 2.475 0.495 5 1 C5.66 1.99 6.32 2.98 7 4 C7.33 2.68 7.66 1.36 8 0 C9.32 0 10.64 0 12 0 C12 3.96 12 7.92 12 12 C7 11 7 11 5 9 C4.67 9.99 4.34 10.98 4 12 C2.68 12 1.36 12 0 12 C0 8.04 0 4.08 0 0 Z " fill="#000000" transform="translate(98,48)"/>
<path d="M0 0 C2.91289646 0.08473881 3.77703881 0.15009119 6.125 2 C7.38106608 5.18203406 6.98320253 7.11712952 6.0625 10.375 C4.0625 12.375 4.0625 12.375 0.125 12.6875 C-2.39094502 12.60515998 -3.74161565 12.47591012 -6 11.3125 C-7.52049975 8.17013385 -6.71822633 5.67807292 -5.9375 2.375 C-3.9375 0.375 -3.9375 0.375 0 0 Z M-0.9375 3.375 C-1.5975 4.035 -2.2575 4.695 -2.9375 5.375 C-2.6189823 7.48320797 -2.6189823 7.48320797 -1.9375 9.375 C-0.6175 9.045 0.7025 8.715 2.0625 8.375 C2.0625 7.055 2.0625 5.735 2.0625 4.375 C1.0725 4.045 0.0825 3.715 -0.9375 3.375 Z " fill="#000000" transform="translate(82.9375,47.625)"/>
<path d="M0 0 C1.423125 -0.061875 2.84625 -0.12375 4.3125 -0.1875 C5.51326172 -0.23970703 5.51326172 -0.23970703 6.73828125 -0.29296875 C9 0 9 0 10.76953125 1.32421875 C12.6691714 3.91134772 12.38880875 5.88952999 12 9 C10.76953125 10.67578125 10.76953125 10.67578125 9 12 C6.73828125 12.29296875 6.73828125 12.29296875 4.3125 12.1875 C2.889375 12.125625 1.46625 12.06375 0 12 C0 8.04 0 4.08 0 0 Z M4 3 C4 4.98 4 6.96 4 9 C5.32 8.67 6.64 8.34 8 8 C7.67 6.35 7.34 4.7 7 3 C6.01 3 5.02 3 4 3 Z " fill="#000000" transform="translate(56,48)"/>
<path d="M0 0 C1.32 0 2.64 0 4 0 C5.75 2 5.75 2 7 4 C7.33 2.68 7.66 1.36 8 0 C8.99 0 9.98 0 11 0 C11 3.96 11 7.92 11 12 C7 11 7 11 5 9 C4.67 9.99 4.34 10.98 4 12 C2.68 12 1.36 12 0 12 C0 8.04 0 4.08 0 0 Z " fill="#000000" transform="translate(35,48)"/>
<path d="M0 0 C3.3 0 6.6 0 10 0 C9.70703125 1.953125 9.4140625 3.90625 9.12109375 5.859375 C8.87452051 8.33941547 8.87452051 8.33941547 10 12 C6.7 12 3.4 12 0 12 C0 8.04 0 4.08 0 0 Z " fill="#000000" transform="translate(119,48)"/>
<path d="M0 0 C2.25 -0.0625 2.25 -0.0625 5 1 C7.02398511 4.31079993 9 8.06322849 9 12 C7.68 12 6.36 12 5 12 C5 11.34 5 10.68 5 10 C3.35 10 1.7 10 0 10 C0 10.66 0 11.32 0 12 C-1.32 12 -2.64 12 -4 12 C-3.33501617 7.61110675 -1.81242323 4.0188515 0 0 Z M2 5 C3 7 3 7 3 7 Z " fill="#000000" transform="translate(172,48)"/>
<path d="M0 0 C1.134375 0.020625 2.26875 0.04125 3.4375 0.0625 C3.4375 1.3825 3.4375 2.7025 3.4375 4.0625 C2.4475 4.0625 1.4575 4.0625 0.4375 4.0625 C1.7575 4.7225 3.0775 5.3825 4.4375 6.0625 C4.480221 7.72861905 4.47813832 9.39632885 4.4375 11.0625 C3.4375 12.0625 3.4375 12.0625 1.58984375 12.16015625 C-0.4609375 12.12760417 -2.51171875 12.09505208 -4.5625 12.0625 C-4.5625 10.7425 -4.5625 9.4225 -4.5625 8.0625 C-3.9025 8.0625 -3.2425 8.0625 -2.5625 8.0625 C-3.5525 7.4025 -4.5425 6.7425 -5.5625 6.0625 C-4.48849278 0.07874549 -4.48849278 0.07874549 0 0 Z " fill="#000000" transform="translate(142.5625,47.9375)"/>
<path d="M0 0 C0.99 0.103125 1.98 0.20625 3 0.3125 C5 3.3125 5 3.3125 4.8125 5.875 C4 8.3125 4 8.3125 1 10.3125 C-3.54054054 9.77195946 -3.54054054 9.77195946 -5 8.3125 C-5.1875 5.375 -5.1875 5.375 -5 2.3125 C-3 0.3125 -3 0.3125 0 0 Z " fill="#010000" transform="translate(98,25.6875)"/>
<path d="M0 0 C0.61875 0.165 1.2375 0.33 1.875 0.5 C4.16786836 1.23577017 4.16786836 1.23577017 7 0 C6.67 2.31 6.34 4.62 6 7 C3.6875 8.125 3.6875 8.125 1 9 C0.01 8.34 -0.98 7.68 -2 7 C-1.125 1.125 -1.125 1.125 0 0 Z M1 4 C2 6 2 6 2 6 Z " fill="#000000" transform="translate(94,63)"/>
<path d="M0 0 C1.32 0 2.64 0 4 0 C4 3.96 4 7.92 4 12 C2.68 12 1.36 12 0 12 C0 8.04 0 4.08 0 0 Z " fill="#000000" transform="translate(156,48)"/>
<path d="M0 0 C0.99 0 1.98 0 3 0 C3 3.96 3 7.92 3 12 C2.01 12 1.02 12 0 12 C0 8.04 0 4.08 0 0 Z " fill="#000000" transform="translate(22,48)"/>
</svg>
